<svg width="100" height="100" viewBox="0 0 100 100" fill="none" xmlns="http://www.w3.org/2000/svg">
<g id="arrow">
<path id="Vector" d="M25 75C29.9445 79.9445 36.2442 83.3118 43.1025 84.676C49.9608 86.0402 57.0695 85.34 63.5299 82.6641C69.9902 79.9881 75.512 75.4565 79.3969 69.6424C83.2818 63.8282 85.3553 56.9926 85.3553 50C85.3553 43.0074 83.2818 36.1718 79.3969 30.3576C75.512 24.5435 69.9902 20.0119 63.5299 17.3359C57.0695 14.66 49.9608 13.9598 43.1025 15.324C36.2442 16.6882 29.9445 20.0555 25 25C21.7169 28.2831 19.1127 32.1806 17.3359 36.4701C15.5591 40.7596 14.6447 45.3571 14.6447 50C14.6447 59.3768 18.3696 68.3696 25 75ZM45.425 36.125L60.075 36.475C60.2893 36.4777 60.5012 36.52 60.7 36.6C60.9238 36.6115 61.1438 36.6622 61.35 36.75C61.7815 36.917 62.1734 37.1722 62.5006 37.4994C62.8277 37.8266 63.083 38.2185 63.25 38.65C63.4379 39.0759 63.5398 39.5346 63.55 40L63.55 55C63.55 55.9415 63.176 56.8445 62.5102 57.5102C61.8445 58.176 60.9415 58.55 60 58.55C59.0585 58.55 58.1555 58.176 57.4898 57.5102C56.824 56.8445 56.45 55.9415 56.45 55L56.475 48.525L42.5 62.5C41.8369 63.163 40.9377 63.5355 40 63.5355C39.0623 63.5355 38.163 63.163 37.5 62.5C36.8369 61.837 36.4645 60.9377 36.4645 60C36.4645 59.0623 36.8369 58.163 37.5 57.5L51.65 43.35L45.25 43.2C44.3118 43.1768 43.4212 42.7818 42.7742 42.102C42.1272 41.4222 41.7768 40.5132 41.8 39.575C41.8232 38.6368 42.2182 37.7462 42.898 37.0992C43.5778 36.4522 44.4868 36.1018 45.425 36.125Z" fill="#231F20"/>
</g>
</svg>
