<svg width="28" height="24" viewBox="0 0 28 24" fill="none" xmlns="http://www.w3.org/2000/svg">
<path d="M1.75 13.7131H22.505L16.1525 21.1867C16.0054 21.36 15.8946 21.56 15.8265 21.7753C15.7583 21.9905 15.7341 22.2169 15.7552 22.4413C15.7979 22.8946 16.0226 23.3127 16.38 23.6036C16.7374 23.8946 17.1981 24.0345 17.6609 23.9927C18.1236 23.951 18.5505 23.7308 18.8475 23.3808L27.5975 13.096C27.6564 13.0142 27.709 12.9282 27.755 12.8389C27.755 12.7531 27.8425 12.7017 27.8775 12.616C27.9568 12.4195 27.9984 12.2103 28 11.9989C27.9984 11.7876 27.9568 11.5784 27.8775 11.3818C27.8775 11.2961 27.79 11.2447 27.755 11.159C27.709 11.0696 27.6564 10.9837 27.5975 10.9019L18.8475 0.617091C18.683 0.423595 18.4769 0.267986 18.244 0.161331C18.0111 0.0546758 17.7571 -0.000405687 17.5 3.27461e-06C17.0911 -0.000779249 16.6948 0.138709 16.38 0.394254C16.2028 0.538154 16.0563 0.714881 15.949 0.914316C15.8416 1.11375 15.7754 1.33197 15.7543 1.55648C15.7332 1.781 15.7575 2.00739 15.8258 2.22269C15.8941 2.43799 16.0051 2.63797 16.1525 2.81118L22.505 10.2848H1.75C1.28587 10.2848 0.840752 10.4654 0.512563 10.7869C0.184375 11.1083 0 11.5443 0 11.9989C0 12.4535 0.184375 12.8895 0.512563 13.211C0.840752 13.5325 1.28587 13.7131 1.75 13.7131Z"/>
</svg>
