<svg width="80" height="90" viewBox="0 0 80 90" fill="none" xmlns="http://www.w3.org/2000/svg">
<path fill-rule="evenodd" clip-rule="evenodd" d="M10.0686 54.7189C9.00643 57.2705 8.41302 59.9928 8.31689 62.7549C8.46348 64.4585 9.04446 66.096 10.0043 67.511C11.8105 69.6021 13.9826 71.3466 16.4141 72.6591L32.1186 83.1144C34.0511 84.6523 36.224 85.8609 38.5499 86.6914C40.0601 87.0509 41.6335 87.0509 43.1437 86.6914C45.4851 85.8711 47.6755 84.6709 49.627 83.1389L65.4999 72.6774C67.9563 71.3612 70.1531 69.6096 71.9832 67.5079C72.9499 66.0853 73.5304 64.4358 73.6676 62.7212C73.5633 59.9366 72.9542 57.194 71.8699 54.6271L57.9876 10.9374C57.6777 9.52251 57.1177 8.17426 56.3338 6.9562C55.763 6.26252 55.0253 5.72512 54.1901 5.39432C52.7945 5.01594 51.3426 4.88942 49.9026 5.0207H31.8277C30.3871 4.88975 28.9348 5.01942 27.5402 5.40351C26.703 5.73364 25.9647 6.27361 25.3965 6.97151C24.6161 8.18964 24.0611 9.53819 23.758 10.9528L10.0686 54.7189ZM50.6161 14.2939C51.2618 15.3205 51.7192 16.454 51.9667 17.6413L63.886 56.7923C59.4091 54.4701 54.6037 52.8456 49.6361 51.9749L41.8911 25.7599C41.8435 25.6051 41.7595 25.4639 41.6461 25.3482C41.5327 25.2326 41.3932 25.1457 41.2393 25.0951C41.0855 25.0444 40.9217 25.0313 40.7618 25.0569C40.6018 25.0826 40.4503 25.1462 40.32 25.2424C40.1451 25.3703 40.0171 25.5522 39.9556 25.7599L32.2993 51.9658C27.3083 52.8346 22.4806 54.4655 17.9852 56.8014L29.9535 17.6504C30.1985 16.461 30.6571 15.3259 31.3071 14.3001C31.7811 13.7183 32.3941 13.2654 33.0895 12.9832C34.2609 12.6665 35.4798 12.5628 36.6879 12.6769H45.2415C46.4506 12.5627 47.6705 12.6664 48.843 12.9832C49.5404 13.2662 50.1546 13.7214 50.6284 14.3062L50.6161 14.2939ZM41.3888 61.4962C45.0745 61.7097 48.7295 60.7174 51.8013 58.6696C52.1505 59.7688 52.2743 60.9272 52.1654 62.0754C52.0565 63.2235 51.717 64.338 51.1674 65.3519C50.0375 67.2724 48.3976 68.8423 46.4297 69.8875C44.3656 71.1982 42.5893 72.3375 42.5893 75.3602C42.5868 76.3298 42.8057 77.2872 43.2294 78.1593C41.8374 77.5812 40.648 76.6036 39.8113 75.35C38.9746 74.0963 38.5282 72.6228 38.5285 71.1156V70.9287C38.5285 68.8371 38.5285 66.2615 35.5823 66.2615C35.1716 66.2612 34.7648 66.3414 34.3849 66.4973C33.6203 66.8139 33.0124 67.4207 32.6944 68.1847C32.5365 68.5643 32.4543 68.9711 32.4525 69.3822C30.4331 67.1769 29.3484 64.274 29.4267 61.2849C29.4124 59.9912 29.5931 58.7028 29.9626 57.4629C31.1876 59.7812 35.8426 61.5054 41.3888 61.5054V61.4962Z" fill="#FF5D01"/>
</svg>
