<svg width="535" height="420" viewBox="0 0 535 420" fill="none" xmlns="http://www.w3.org/2000/svg">
<path d="M446.871 75.892C488.071 95.892 501.271 164.892 489.371 222.092C477.471 279.292 440.371 324.492 399.271 350.492C358.071 376.492 312.871 383.292 270.771 380.092C228.671 376.892 189.771 363.792 139.771 337.792C89.7714 311.792 28.6714 272.892 34.8714 240.192C41.0714 207.492 114.571 180.992 164.571 160.992C214.571 140.992 241.071 127.492 288.871 106.192C336.671 84.892 405.671 55.892 446.871 75.892Z" stroke="#6600FF" stroke-width="20"/>
<path d="M450.436 74.718C491.636 94.718 504.836 163.718 492.936 220.918C481.036 278.118 443.936 323.318 402.836 349.318C361.636 375.318 316.436 382.118 274.336 378.918C232.236 375.718 193.336 362.618 143.336 336.618C93.3364 310.618 32.2364 271.718 38.4364 239.018C44.6364 206.318 118.136 179.818 168.136 159.818C218.136 139.818 244.636 126.318 292.436 105.018C340.236 83.718 409.236 54.718 450.436 74.718Z" stroke="#715DF2" stroke-width="10"/>
</svg>
