<svg width="539" height="566" viewBox="0 0 539 566" fill="none" xmlns="http://www.w3.org/2000/svg">
<path class="first" d="M97.3349 136.46C129.862 111.424 190.608 122.233 234.22 139.654C277.733 156.975 304.112 180.909 350.184 206.343C396.255 231.777 461.92 258.61 470.839 294.256C479.858 330.002 432.032 374.56 385.672 405.925C339.412 437.391 294.518 455.764 236.653 468.37C178.888 481.078 108.152 488.119 75.9127 456.255C43.7739 424.392 50.2324 353.724 55.466 287.949C60.7992 222.275 64.9075 161.496 97.3349 136.46Z" stroke="#6600FF" stroke-width="20"/>
<path class="second" d="M96.5903 133.778C129.118 108.742 189.864 119.55 233.476 136.972C276.989 154.293 303.368 178.227 349.439 203.661C395.511 229.095 461.176 255.928 470.095 291.574C479.114 327.32 431.287 371.878 384.927 403.243C338.667 434.709 293.773 453.082 235.909 465.688C178.144 478.396 107.407 485.437 75.1682 453.573C43.0294 421.71 49.4879 351.042 54.7215 285.267C60.0546 219.593 64.163 158.813 96.5903 133.778Z" stroke="#715DF2" stroke-width="10"/>
</svg>
