<svg width="596" height="530" viewBox="0 0 596 530" fill="none" xmlns="http://www.w3.org/2000/svg">
<path class="first" d="M413.425 183.737C462.925 226.137 535.425 252.637 538.325 282.037C541.225 311.437 474.525 343.737 425.025 364.537C375.525 385.337 343.225 394.737 291.725 413.937C240.225 433.137 169.525 462.237 132.525 441.437C95.5249 420.537 92.2249 349.837 97.6249 284.537C103.025 219.237 117.225 159.437 154.225 117.037C191.225 74.7366 251.025 49.9366 294.225 66.6366C337.425 83.2366 363.925 141.437 413.425 183.737Z" stroke="#6600FF" stroke-width="20"/>
<path class="second" d="M415.841 181.355C465.341 223.755 537.841 250.255 540.741 279.655C543.641 309.055 476.941 341.355 427.441 362.155C377.941 382.955 345.641 392.355 294.141 411.555C242.641 430.755 171.941 459.855 134.941 439.055C97.9414 418.155 94.6414 347.455 100.041 282.155C105.441 216.855 119.641 157.055 156.641 114.655C193.641 72.355 253.441 47.555 296.641 64.255C339.841 80.855 366.341 139.055 415.841 181.355Z" stroke="#715DF2" stroke-width="10"/>
</svg>
