<svg width="640" height="553" viewBox="0 0 640 553" fill="none" xmlns="http://www.w3.org/2000/svg">
<path d="M491.966 124.663C534.166 161.863 547.766 232.563 537.966 293.463C528.166 354.363 494.966 405.563 452.866 442.563C410.666 479.563 359.466 502.363 320.666 490.063C281.866 477.763 255.366 430.263 209.466 393.263C163.666 356.263 98.4663 329.763 80.4663 285.163C62.3663 240.563 91.2663 177.863 137.166 140.663C182.966 103.563 245.666 91.8627 312.366 87.8627C379.066 83.8627 449.766 87.4626 491.966 124.663Z" stroke="#6600FF" stroke-width="20"/>
<path d="M494.965 123.08C537.165 160.28 550.765 230.98 540.965 291.88C531.165 352.78 497.965 403.98 455.865 440.98C413.665 477.98 362.465 500.78 323.665 488.48C284.865 476.18 258.365 428.68 212.465 391.68C166.665 354.68 101.465 328.18 83.4646 283.58C65.3646 238.98 94.2646 176.28 140.165 139.08C185.965 101.98 248.665 90.2804 315.365 86.2804C382.065 82.2804 452.765 85.8804 494.965 123.08Z" stroke="#715DF2" stroke-width="10"/>
</svg>
