<svg width="527" height="521" viewBox="0 0 527 521" fill="none" xmlns="http://www.w3.org/2000/svg">
<path d="M402.772 81.1736C442.355 113.861 448.53 186.501 451.176 261.782C453.712 336.953 452.72 414.766 413.247 435.677C373.663 456.589 295.71 420.599 237.713 400.678C179.826 380.647 141.897 376.685 112.458 355.773C83.0181 334.862 62.179 297.001 66.5894 263.433C70.8895 229.975 100.439 200.809 129.879 168.121C159.318 135.433 188.537 99.3335 239.477 77.6517C290.527 55.8598 363.299 48.5958 402.772 81.1736Z" stroke="#6600FF" stroke-width="20"/>
<path d="M404.772 79.2315C444.355 112.005 450.53 184.834 453.176 260.312C455.712 335.679 454.72 413.695 415.247 434.661C375.663 455.627 297.71 419.543 239.713 399.57C181.826 379.487 143.897 375.514 114.458 354.548C85.0181 333.582 64.179 295.623 68.5894 261.967C72.8895 228.421 102.439 199.179 131.879 166.406C161.318 133.633 190.537 97.4388 241.477 75.7004C292.527 53.8516 365.299 46.5687 404.772 79.2315Z" stroke="#715DF2" stroke-width="10"/>
</svg>
