<svg width="539" height="534" viewBox="0 0 539 534" fill="none" xmlns="http://www.w3.org/2000/svg">
<path d="M359.373 153.287C405.571 193.755 472.991 218.58 488.391 258.767C503.884 299.048 467.263 354.693 421.159 398.44C374.96 442.093 319.184 473.943 258.055 479.189C197.021 484.529 130.634 463.358 100.868 419.611C71.1014 375.864 78.05 309.634 91.7593 257.081C105.469 204.528 126.033 165.652 155.799 125.278C185.471 84.8091 224.439 42.7481 256.365 49.7739C288.291 56.7997 313.174 112.819 359.373 153.287Z" stroke="#6600FF" stroke-width="20"/>
<path d="M361.695 152.287C407.781 192.755 475.037 217.58 490.4 257.767C505.855 298.048 469.323 353.693 423.331 397.44C377.244 441.093 321.603 472.943 260.623 478.189C199.737 483.529 133.511 462.358 103.817 418.611C74.123 374.864 81.0547 308.634 94.7308 256.081C108.407 203.528 128.921 164.652 158.615 124.278C188.215 83.8091 227.089 41.7481 258.937 48.7739C290.785 55.7997 315.608 111.819 361.695 152.287Z" stroke="#715DF2" stroke-width="10"/>
</svg>
