<svg width="159" height="159" viewBox="0 0 159 159" fill="none" xmlns="http://www.w3.org/2000/svg">
<path d="M120.463 107.798L49.8326 37.1676C47.5309 34.8659 43.1842 35.4808 40.124 38.541L39.5408 39.1243C36.4805 42.1845 35.8656 46.5312 38.1673 48.8329L108.797 119.463C111.099 121.765 115.446 121.15 118.506 118.089L119.089 117.506C122.149 114.446 122.764 110.099 120.463 107.798Z" fill="white"/>
<path d="M108.798 38.1715L38.1676 108.801C35.8659 111.103 36.4808 115.45 39.541 118.51L40.1243 119.093C43.1845 122.153 47.5312 122.768 49.8329 120.467L120.463 49.8368C122.765 47.5351 122.15 43.1884 119.089 40.1281L118.506 39.5449C115.446 36.4847 111.099 35.8697 108.798 38.1715Z" fill="white"/>
</svg>
