<svg width="123" height="139" viewBox="0 0 123 139" fill="none" xmlns="http://www.w3.org/2000/svg">
<g clip-path="url(#clip0_210_401)">
<path d="M122.793 40.8851C122.792 38.5542 122.296 36.4945 121.292 34.7267C120.306 32.9884 118.83 31.5315 116.849 30.3796C100.501 20.9116 84.1373 11.4726 67.7946 1.99503C63.3887 -0.559808 59.1169 -0.466667 54.7436 2.12484C48.2367 5.97929 15.6585 24.7265 5.95061 30.3742C1.95263 32.6989 0.00720703 36.2565 0.00624609 40.8807C0 59.9213 0.00624609 78.9615 0 98.0026C0.000960938 100.282 0.476144 102.302 1.43564 104.043C2.42204 105.834 3.91918 107.331 5.94532 108.509C15.6537 114.157 48.2362 132.903 54.7417 136.758C59.1169 139.351 63.3887 139.444 67.7961 136.888C84.1392 127.41 100.504 117.971 116.854 108.503C118.88 107.326 120.378 105.828 121.364 104.038C122.322 102.297 122.798 100.277 122.799 97.9973C122.799 97.9973 122.799 59.9262 122.793 40.8851Z" fill="#5C8DBC"/>
<path d="M61.5874 69.2561L1.43555 104.043C2.42195 105.834 3.91909 107.331 5.94523 108.509C15.6536 114.157 48.2361 132.903 54.7416 136.758C59.1168 139.351 63.3886 139.444 67.796 136.888C84.1391 127.41 100.504 117.971 116.854 108.503C118.88 107.326 120.378 105.828 121.364 104.038L61.5874 69.2561Z" fill="#1A4674"/>
<path d="M43.771 79.5604C47.2712 85.698 53.8512 89.8376 61.3994 89.8376C68.9942 89.8376 75.6117 85.6454 79.0941 79.4421L61.5873 69.2561L43.771 79.5604Z" fill="#1A4674"/>
<path d="M122.793 40.8851C122.792 38.5542 122.296 36.4945 121.292 34.7267L61.5874 69.2561L121.364 104.038C122.322 102.297 122.798 100.278 122.799 97.9973C122.799 97.9973 122.799 59.9262 122.793 40.8851Z" fill="#1B598E"/>
<path d="M119.506 71.7424H114.835V76.4351H110.163V71.7424H105.492V67.0511H110.163V62.3594H114.835V67.0511H119.506V71.7424ZM102.462 71.7424H97.791V76.4351H93.1198V71.7424H88.4487V67.0511H93.1198V62.3594H97.791V67.0511H102.462V71.7424Z" fill="white"/>
<path d="M79.0941 79.4421C75.6117 85.6453 68.9942 89.8376 61.3994 89.8376C53.8513 89.8376 47.2712 85.6979 43.771 79.5604C42.0127 76.4806 41.0892 72.9916 41.0929 69.4414C41.0929 58.1772 50.1848 49.0457 61.3994 49.0457C68.8991 49.0457 75.4445 53.1337 78.962 59.2085L96.711 48.9429C89.6563 36.7111 76.4852 28.482 61.3994 28.482C38.877 28.482 20.6196 46.8204 20.6196 69.4414C20.6196 76.8627 22.5852 83.8221 26.0206 89.8251C33.0575 102.121 46.2661 110.401 61.3994 110.401C76.5606 110.401 89.7898 102.088 96.8167 89.7556L79.0941 79.4421Z" fill="white"/>
</g>
<defs>
<clipPath id="clip0_210_401">
<rect width="123" height="139" fill="white"/>
</clipPath>
</defs>
</svg>
