<svg width="92" height="91" viewBox="0 0 92 91" fill="none" xmlns="http://www.w3.org/2000/svg">
<path d="M44.4815 2.97059C44.2761 2.9922 43.6169 3.06785 43.0225 3.12189C34.5712 4.00809 26.2495 7.58531 19.4626 13.27C18.2089 14.3075 15.3558 17.1606 14.3183 18.4142C8.69848 25.1256 5.41306 32.6583 4.20264 41.5743C3.93245 43.552 3.93245 50.2309 4.20264 52.2087C5.41306 61.1247 8.69848 68.6574 14.3183 75.3687C15.3558 76.6224 18.2089 79.4755 19.4626 80.513C26.1739 86.1328 33.7066 89.4182 42.6226 90.6287C44.6004 90.8988 51.2793 90.8988 53.257 90.6287C62.173 89.4182 69.7057 86.1328 76.4171 80.513C77.6707 79.4755 80.5238 76.6224 81.5613 75.3687C87.1811 68.6574 90.4666 61.1247 91.677 52.2087C91.9472 50.2309 91.9472 43.552 91.677 41.5743C90.4666 32.6583 87.1811 25.1256 81.5613 18.4142C80.5238 17.1606 77.6707 14.3075 76.4171 13.27C69.7273 7.67177 62.119 4.34312 53.3218 3.16512C52.3708 3.03543 50.9875 2.98139 48.4261 2.95978C46.47 2.93817 44.6868 2.94897 44.4815 2.97059ZM45.0218 7.63934C45.0218 8.9038 45.1083 11.6489 45.2272 14.2534C45.292 15.5287 45.3677 17.3551 45.4001 18.3062C45.519 21.678 45.8756 30.5292 45.9297 31.3182L45.9837 32.1071L45.4974 32.0531C45.2272 32.0314 44.9786 31.9666 44.9354 31.9342C44.903 31.8909 44.8273 31.1452 44.7841 30.2698C44.5895 26.4224 43.9519 11.4976 43.8871 9.31448L43.8222 6.91525L44.1248 6.87202C44.2869 6.85041 44.5571 6.81799 44.73 6.80718L45.0218 6.79637V7.63934ZM55.3644 7.37997C55.3752 7.39078 55.4077 10.6546 55.4401 14.6317C55.4833 18.6196 55.5373 22.1968 55.5698 22.5858C55.6022 22.9857 55.5914 23.3316 55.5373 23.3532C55.4941 23.3856 55.2239 23.3856 54.9538 23.3532L54.4566 23.3099L54.381 20.165C54.3377 18.425 54.2837 16.5013 54.2621 15.8745C54.1756 13.9616 54.1 7.46643 54.1648 7.30432C54.208 7.18544 54.3269 7.17463 54.7808 7.25028C55.0942 7.31512 55.3536 7.36916 55.3644 7.37997ZM30.3671 11.0004C30.432 11.0977 30.9399 17.0525 31.5667 24.8446C31.7721 27.4924 31.9774 29.9132 32.0098 30.2158C32.0639 30.767 32.0531 30.7886 31.7072 31.0047C31.5127 31.1236 31.3182 31.2209 31.2749 31.2209C31.2425 31.2209 31.1777 30.9399 31.1453 30.5941C30.994 29.1891 30.4104 22.4021 29.9997 17.4956C29.7619 14.6101 29.5458 12.0271 29.5134 11.7461C29.4593 11.2706 29.4701 11.2274 29.7511 11.0761C30.0969 10.8923 30.2915 10.8599 30.3671 11.0004ZM60.1197 13.1727C60.4223 13.2808 60.4547 13.3348 60.5195 13.9508C60.6276 15.0315 60.5952 20.1974 60.4763 20.1974C60.1629 20.1974 59.5144 19.83 59.4604 19.6246C59.428 19.495 59.3956 17.9603 59.3956 16.2203C59.3956 12.708 59.3523 12.9133 60.1197 13.1727ZM40.1586 13.6806C40.1586 13.9724 40.2342 15.5827 40.3207 17.2795C40.4071 18.9762 40.5044 21.1269 40.5476 22.0563C40.6233 23.9368 40.6449 23.8719 39.9208 23.9151C39.5641 23.926 39.5641 23.926 39.5425 23.3856C39.5209 23.083 39.4669 22.1427 39.402 21.2782C39.348 20.4136 39.2183 18.5439 39.1319 17.1174C39.0454 15.6908 38.9373 14.275 38.9049 13.9724C38.8401 13.4321 38.8509 13.4104 39.1427 13.3024C39.3156 13.2375 39.6182 13.1835 39.8127 13.1835C40.1586 13.1727 40.1586 13.1727 40.1586 13.6806ZM70.138 15.1612L70.5055 15.3125L70.5811 16.7607C70.6135 17.5496 70.6352 19.2572 70.6135 20.5433L70.5811 22.8993L70.1272 22.6723L69.6733 22.4562L69.6409 18.8681C69.6193 16.8904 69.6301 15.2153 69.6517 15.1396C69.6949 14.9775 69.6949 14.9775 70.138 15.1612ZM50.4039 16.577C50.4687 16.6418 50.62 21.8834 50.6308 24.542L50.6416 26.1415L50.1337 26.0658C49.8419 26.0334 49.6041 26.001 49.5933 25.9902C49.5609 25.9685 49.2367 17.9603 49.2367 17.1822V16.3825L49.7879 16.4473C50.1013 16.4905 50.3715 16.5446 50.4039 16.577ZM75.2931 17.3443C75.4228 17.4956 75.4444 19.8624 75.4768 32.9176C75.5093 47.9074 75.5093 48.2964 75.3147 48.2964C75.1958 48.2964 75.0337 48.2316 74.9365 48.1559C74.7744 48.0371 74.7527 46.7294 74.6987 33.9227C74.6555 26.1631 74.6014 19.1167 74.569 18.2629L74.5042 16.7067L74.8176 16.9336C75.0013 17.0633 75.2066 17.247 75.2931 17.3443ZM65.5989 19.5598C65.653 19.603 65.707 20.2191 65.7178 20.9215C65.7719 23.3099 65.7827 37.9538 65.7286 37.9971C65.707 38.0187 65.5125 37.9647 65.2963 37.8782L64.9073 37.7161V19.3328L65.2099 19.3977C65.372 19.4409 65.5449 19.5058 65.5989 19.5598ZM35.7708 20.165C35.8032 20.4568 35.8572 21.1161 35.8897 21.6564C35.9221 22.186 35.9977 23.3964 36.0626 24.3366C36.1923 26.2387 36.1707 26.3576 35.5546 26.3576C35.2304 26.3576 35.1872 26.3252 35.144 26.001C35.0359 25.3633 34.6576 20.0461 34.7117 19.9597C34.7657 19.884 35.3277 19.6895 35.5871 19.6679C35.6519 19.6571 35.7384 19.884 35.7708 20.165ZM17.8955 22.9209C18.0144 24.0665 18.2521 26.4657 18.4251 28.2489C18.6088 30.0321 18.7601 31.5451 18.7601 31.61C18.7601 31.7396 17.9279 32.1503 17.8415 32.0639C17.7874 32.0098 16.7067 22.4454 16.7067 22.0131C16.7067 21.7537 17.5389 20.6621 17.6469 20.781C17.6793 20.8026 17.7874 21.7645 17.8955 22.9209ZM60.271 24.0556L60.5844 24.2394L60.5952 26.5737C60.606 27.849 60.6276 29.2756 60.6276 29.7403C60.6492 30.7129 60.5303 30.8751 59.9467 30.6697L59.6117 30.5508V29.6214C59.6117 29.1027 59.5793 27.6004 59.5361 26.2711L59.4712 23.8719H59.7198C59.8495 23.8719 60.098 23.9584 60.271 24.0556ZM22.6399 28.2489C22.8344 30.3239 23.1478 33.8255 23.3532 36.0301L23.7206 40.0288L23.2992 40.4503L22.8885 40.8718L22.8128 40.018C22.7696 39.5425 22.5534 37.3378 22.3265 35.1115C22.0995 32.8852 21.7753 29.6538 21.6132 27.9355L21.3106 24.823L21.7321 24.4339C22.1103 24.0773 22.1536 24.0665 22.2292 24.261C22.2725 24.3691 22.4562 26.1631 22.6399 28.2489ZM14.5452 29.5566C14.783 31.6856 15.4098 37.3486 15.9502 42.1363C16.4905 46.9239 16.9985 51.5386 17.0958 52.4032C17.1822 53.2678 17.3335 54.5755 17.42 55.3212C17.5713 56.5856 17.5713 56.6721 17.3984 56.8018C17.139 56.9963 17.0309 56.9747 17.0309 56.7478C17.0309 56.6505 16.9336 55.8291 16.8148 54.9429C16.6202 53.4623 16.296 50.955 15.5719 45.3244C15.4206 44.1897 15.1288 41.9309 14.9235 40.299C14.7073 38.6671 14.3939 36.2355 14.221 34.8954C14.0481 33.5553 13.7563 31.2641 13.5726 29.7835C13.378 28.3137 13.2592 27.006 13.2916 26.8655C13.3672 26.5737 14.0049 25.5579 14.0697 25.6227C14.0913 25.6551 14.3075 27.4167 14.5452 29.5566ZM11.2382 34.2145C11.4003 35.5114 11.7029 37.8782 11.9082 39.4885C12.1136 41.088 12.373 43.0873 12.4918 43.9195L12.6972 45.4325L12.4702 45.627C12.3405 45.7351 12.2109 45.7783 12.1676 45.7351C12.1244 45.6919 12.0379 45.2596 11.9731 44.7841C11.9082 44.3085 11.5084 41.5311 11.0761 38.6239L10.3088 33.3283L10.5573 32.5934C10.687 32.1935 10.8275 31.8693 10.8599 31.8693C10.9032 31.8693 11.0653 32.9284 11.2382 34.2145ZM70.5703 32.7988C70.7216 32.9501 70.7432 33.6201 70.7432 38.5807V44.1897H70.4406C69.7814 44.1897 69.7922 44.3518 69.749 38.2132L69.7165 32.6258H70.0624C70.2461 32.6258 70.4839 32.7015 70.5703 32.7988ZM46.9131 34.7333C49.3556 35.1007 51.4846 35.7816 53.592 36.8623C54.9538 37.5648 55.6022 38.0511 57.1152 39.4993C59.3631 41.6499 60.7465 43.5304 62.0434 46.189C63.9346 50.058 64.6695 53.4839 65.5989 62.6702C66.0204 66.7877 66.5716 74.2556 66.6905 77.3141C66.7229 78.2003 66.7986 79.6592 66.8634 80.5563C66.9823 82.4583 67.1228 82.199 65.4477 83.0095C63.1241 84.1335 60.887 84.9116 57.9366 85.6357C54.3269 86.5219 51.9926 86.8029 48.4261 86.8137L45.8324 86.8245L45.854 85.5816C45.854 84.9008 45.9188 83.3121 45.9837 82.0693C46.3079 76.0496 46.2431 68.4521 45.8216 64.2372C45.5838 61.8164 45.1191 58.8768 44.8597 58.2284C44.8057 58.0879 45.0543 57.969 46.1242 57.6015C48.0803 56.9207 49.7771 56.0669 50.0364 55.6454C50.5011 54.8457 49.669 53.7001 48.6099 53.7001C48.4261 53.7001 47.875 53.8946 47.367 54.1216C44.9462 55.2347 40.0937 56.5424 37.2946 56.8342C35.3601 57.0396 32.3557 56.9207 30.2699 56.5424C29.1351 56.3371 27.1033 55.5698 25.4066 54.6944C23.4505 53.6785 22.2508 52.3276 21.8942 50.7281C21.6997 49.8635 21.7537 48.1343 22.0023 47.1617C22.2725 46.0917 23.029 44.5355 23.7206 43.6277C26.8007 39.5749 33.1554 36.0626 39.6722 34.8305C41.7472 34.4415 44.6868 34.3982 46.9131 34.7333ZM80.2537 35.0683C80.6427 35.2304 80.686 35.2736 80.686 35.6411C80.7076 38.5915 80.6427 45.3352 80.5887 45.6162C80.5779 45.7135 80.0159 45.7243 79.7781 45.6378C79.6268 45.5838 79.6052 45.0002 79.6052 40.2342C79.6052 36.8191 79.6485 34.8954 79.7133 34.8954C79.7673 34.8954 80.0159 34.971 80.2537 35.0683ZM84.9765 41.0015L85.3655 41.1636L85.2899 50.1121C85.2034 61.5138 85.1926 61.8488 84.7819 62.8323C84.1119 64.4426 84.1443 64.7668 84.2091 57.6988C84.2308 54.1648 84.2848 50.5876 84.3064 49.7554C84.328 48.9233 84.3496 46.5781 84.3604 44.5355C84.3604 42.0714 84.3929 40.8394 84.4685 40.8394C84.5334 40.8394 84.7603 40.915 84.9765 41.0015ZM19.9813 43.6925C20.0462 44.5679 20.0245 44.6544 19.7111 45.346L19.3653 46.0809L19.2356 45.0002C19.0303 43.271 19.0303 43.1954 19.4409 42.936C19.6247 42.8063 19.8192 42.7199 19.8516 42.7415C19.884 42.7631 19.9489 43.1954 19.9813 43.6925ZM13.3024 50.2093C13.3997 51.0955 14.1562 56.9747 14.5452 59.8603C15.1288 64.3237 15.1721 64.9613 14.9127 64.6911C14.8803 64.6587 14.6317 63.1565 14.3723 61.3517C12.6864 49.7014 12.6972 49.777 12.8377 49.6906C13.1295 49.496 13.2267 49.6041 13.3024 50.2093ZM21.0837 55.1591C21.1485 55.4293 21.4619 58.358 21.4619 58.7147C21.4619 59.0173 21.0728 59.2983 20.8999 59.1254C20.8459 59.0713 20.7054 58.1527 20.5973 57.0936C20.4784 56.0237 20.3596 54.9105 20.3271 54.6187L20.2623 54.0784L20.6406 54.5106C20.8567 54.7484 21.0512 55.0402 21.0837 55.1591ZM29.8051 59.2334C29.924 59.3415 29.9997 59.7738 30.0969 60.941C30.2591 63.0484 30.2807 62.8863 29.8376 62.8863C29.3837 62.8863 29.3945 62.9187 29.2432 61.0166C29.0919 59.0821 29.0919 59.1037 29.3837 59.1037C29.5242 59.1037 29.7079 59.1686 29.8051 59.2334ZM38.3645 59.3955C38.3862 59.5036 38.4402 60.1521 38.4834 60.8329C38.5158 61.5138 38.6131 63.0484 38.6996 64.2372C39.0022 68.6034 39.013 69.1545 38.8293 69.1545C38.6239 69.1545 38.6023 68.9924 38.3645 65.9123C38.2781 64.6371 38.116 62.6269 38.0079 61.4489C37.9106 60.2709 37.8458 59.2875 37.8782 59.2659C37.9971 59.1362 38.3105 59.2334 38.3645 59.3955ZM18.0468 61.4705C18.1116 61.5678 18.5223 65.0261 19.0303 69.7489C19.1816 71.1755 19.3329 72.548 19.3653 72.8074L19.4193 73.2721L19.1491 73.0992C18.9438 72.9587 18.8682 72.8182 18.8682 72.5696C18.8682 71.8888 18.4034 67.4038 18.0468 64.6587C17.8415 63.1024 17.6793 61.7299 17.6793 61.6002C17.6793 61.3733 17.9387 61.2868 18.0468 61.4705ZM80.4158 65.988L80.3401 70.5055L80.0699 70.9053C79.4539 71.8131 79.4863 71.9861 79.5188 66.9282L79.5404 62.2919L79.9402 61.8812C80.1564 61.6651 80.3725 61.4813 80.4158 61.4813C80.4482 61.4813 80.4482 63.5131 80.4158 65.988ZM70.419 73.1532C70.4731 79.4323 70.4622 79.9186 70.2893 80.1131C70.1813 80.232 70.084 80.3077 70.0516 80.2753C69.9759 80.1888 69.8678 66.4959 69.9543 66.4203C69.9975 66.3771 70.1056 66.3554 70.2029 66.3663C70.3434 66.3987 70.3758 67.166 70.419 73.1532ZM35.1223 68.8519C35.198 69.522 35.4682 72.7318 35.5763 74.2448C35.6411 75.2607 35.6411 75.2931 35.4033 75.3687C35.2736 75.412 35.1223 75.4012 35.0791 75.3471C35.0035 75.2715 34.7657 72.8723 34.4739 69.1762L34.3983 68.29H34.7333C35.0467 68.29 35.0683 68.3116 35.1223 68.8519ZM26.6278 72.6345C26.7035 72.7101 26.7575 72.9803 26.7575 73.2505C26.7575 73.5315 26.8872 74.9905 27.0277 76.5035C27.4383 80.6427 27.4708 81.2047 27.287 81.0966C27.0061 80.9345 26.7575 80.6859 26.8115 80.6211C26.8331 80.5779 26.7899 80.0375 26.7035 79.4215C26.6278 78.7947 26.5305 77.7788 26.4873 77.1519C26.4441 76.5251 26.3468 75.3795 26.2604 74.6122C26.055 72.7209 26.0658 72.5048 26.3036 72.5048C26.4117 72.5048 26.5521 72.5588 26.6278 72.6345ZM31.7397 79.9078C31.7721 80.1456 31.8369 81.0318 31.8802 81.8747C31.9558 83.4958 31.9234 83.6147 31.4803 83.2797C31.3506 83.1824 31.2641 82.7717 31.1344 81.5397C30.9075 79.3134 30.8967 79.3999 31.3182 79.4431C31.6316 79.4755 31.6748 79.5187 31.7397 79.9078Z" fill="white"/>
<path d="M27.8816 39.91C26.7576 40.3963 26.6712 41.9201 27.7303 42.4605C28.4976 42.8496 29.2757 42.6658 29.6756 41.9958C30.4321 40.7637 29.2001 39.3372 27.8816 39.91ZM35.2089 40.9475C34.1714 41.5851 34.1714 43.1197 35.2089 43.7574C36.2356 44.3734 37.5649 43.5628 37.5649 42.3308C37.5649 41.142 36.2032 40.3423 35.2089 40.9475Z" fill="white"/>
</svg>
