<svg width="545" height="389" viewBox="0 0 545 389" fill="none" xmlns="http://www.w3.org/2000/svg">
<g clip-path="url(#clip0_145_14)">
<path d="M1456.69 331.166C1457.95 330.914 1458.7 329.908 1458.7 328.651C1458.7 327.645 1458.45 326.891 1457.7 326.388C1456.69 325.885 1455.43 325.634 1454.17 325.634C1452.92 325.634 1451.41 325.634 1450.15 325.885V336.195H1452.41V332.171H1453.42C1454.68 332.171 1455.43 332.674 1455.68 333.68C1455.93 334.435 1456.19 335.44 1456.44 336.195H1458.95C1458.45 335.44 1458.2 334.435 1458.2 333.68C1458.45 332.674 1457.7 331.669 1456.69 331.166ZM1453.67 330.411H1452.41V327.394H1453.67C1455.18 327.394 1455.93 328.148 1455.93 328.903C1456.19 329.908 1454.93 330.663 1453.67 330.411ZM537.372 147.101C535.863 145.844 522.285 135.534 493.116 135.534C485.572 135.534 477.777 136.288 470.234 137.546C464.702 99.0732 432.767 80.4656 431.51 79.4597L423.714 74.9336L418.685 82.2258C412.399 92.0325 407.621 103.096 404.855 114.412C399.575 136.288 402.844 156.908 413.908 174.509C400.581 182.053 378.956 183.813 374.429 184.065H17.3642C8.06034 184.065 0.516706 191.608 0.516706 200.912C0.013797 232.093 5.29434 263.273 16.1069 292.693C28.4281 324.879 46.7843 348.767 70.421 363.352C97.0752 379.696 140.577 389 189.61 389C211.738 389 233.866 386.989 255.743 382.965C286.169 377.433 315.338 366.872 342.243 351.533C364.371 338.709 384.236 322.365 401.084 303.254C429.498 271.319 446.345 235.613 458.667 203.93H463.696C494.625 203.93 513.735 191.608 524.296 181.047C531.337 174.51 536.618 166.463 540.389 157.411L542.652 150.873L537.372 147.101Z" fill="#0091E2"/>
<path d="M50.5561 173.755H98.3324C100.596 173.755 102.607 171.995 102.607 169.48V126.733C102.607 124.47 100.847 122.458 98.3324 122.458H50.5561C48.293 122.458 46.2814 124.218 46.2814 126.733V169.48C46.5328 171.995 48.293 173.755 50.5561 173.755ZM116.437 173.755H164.214C166.477 173.755 168.488 171.995 168.488 169.48V126.733C168.488 124.47 166.728 122.458 164.214 122.458H116.437C114.174 122.458 112.162 124.218 112.162 126.733V169.48C112.414 171.995 114.174 173.755 116.437 173.755ZM183.575 173.755H231.352C233.615 173.755 235.627 171.995 235.627 169.48V126.733C235.627 124.47 233.866 122.458 231.352 122.458H183.575C181.312 122.458 179.301 124.218 179.301 126.733V169.48C179.301 171.995 181.061 173.755 183.575 173.755ZM249.708 173.755H297.484C299.747 173.755 301.759 171.995 301.759 169.48V126.733C301.759 124.47 299.999 122.458 297.484 122.458H249.708C247.445 122.458 245.433 124.218 245.433 126.733V169.48C245.433 171.995 247.445 173.755 249.708 173.755ZM116.437 112.652H164.214C166.477 112.652 168.488 110.64 168.488 108.377V65.6296C168.488 63.3665 166.728 61.3549 164.214 61.3549H116.437C114.174 61.3549 112.162 63.1151 112.162 65.6296V108.377C112.414 110.64 114.174 112.652 116.437 112.652ZM183.575 112.652H231.352C233.615 112.652 235.627 110.64 235.627 108.377V65.6296C235.627 63.3665 233.866 61.3549 231.352 61.3549H183.575C181.312 61.3549 179.301 63.1151 179.301 65.6296V108.377C179.301 110.64 181.061 112.652 183.575 112.652ZM249.708 112.652H297.484C299.747 112.652 301.759 110.64 301.759 108.377V65.6296C301.759 63.3665 299.747 61.3549 297.484 61.3549H249.708C247.445 61.3549 245.433 63.1151 245.433 65.6296V108.377C245.433 110.64 247.445 112.652 249.708 112.652ZM249.708 51.2967H297.484C299.747 51.2967 301.759 49.5366 301.759 47.022V4.27476C301.759 2.01167 299.747 0 297.484 0H249.708C247.445 0 245.433 1.76021 245.433 4.27476V47.022C245.433 49.2851 247.445 51.2967 249.708 51.2967ZM316.343 173.755H364.12C366.383 173.755 368.395 171.995 368.395 169.48V126.733C368.395 124.47 366.634 122.458 364.12 122.458H316.343C314.08 122.458 312.069 124.218 312.069 126.733V169.48C312.32 171.995 314.08 173.755 316.343 173.755Z" fill="#0091E2"/>
</g>
<defs>
<clipPath id="clip0_145_14">
<rect width="545" height="-389" fill="white" transform="matrix(1 0 0 -1 0 0)"/>
</clipPath>
</defs>
</svg>
