<svg width="64" height="96" viewBox="0 0 64 96" fill="none" xmlns="http://www.w3.org/2000/svg">
<g clip-path="url(#clip0_206_198)">
<path d="M31.7114 48.0182C31.7114 39.2066 38.8024 32.0267 47.5851 32.0267C56.3319 32.0267 63.4589 39.1703 63.4589 48.0182C63.4589 56.8298 56.3679 64.0096 47.5851 64.0096C38.8384 64.0096 31.7114 56.8298 31.7114 48.0182Z" fill="#1ABCFE"/>
<path d="M0 79.9647C0 71.1531 7.09098 63.9733 15.8737 63.9733H31.7474V79.9647C31.7474 88.7763 24.6565 95.9562 15.8737 95.9562C7.09098 95.9562 0 88.8126 0 79.9647Z" fill="#0ACF83"/>
<path d="M31.7114 0.079963V32.0266H47.5851C56.3319 32.0266 63.4589 24.883 63.4589 16.0352C63.4589 7.22354 56.3679 0.0437012 47.5851 0.0437012H31.7114V0.079963Z" fill="#FF7262"/>
<path d="M0 16.0715C0 24.8832 7.09098 32.063 15.8737 32.063H31.7474V0.0800781H15.8737C7.09098 0.0800781 0 7.22365 0 16.0715Z" fill="#F24E1E"/>
<path d="M0 48.0182C0 56.8298 7.09098 64.0096 15.8737 64.0096H31.7474V32.0267H15.8737C7.09098 32.0267 0 39.2066 0 48.0182Z" fill="#A259FF"/>
</g>
<defs>
<clipPath id="clip0_206_198">
<rect width="64" height="96" fill="white"/>
</clipPath>
</defs>
</svg>
