<svg width="224" height="272" viewBox="0 0 224 272" fill="none" xmlns="http://www.w3.org/2000/svg">
<path d="M136.28 4.09L217.95 4L80.93 140.95L45.22 176.46L4.59003 135.78L136.28 4.09ZM135.52 126.37C136.58 124.97 138.53 125.66 140.01 125.48L217.88 125.5L146.91 196.4L106.07 155.81L135.52 126.37Z" fill="#44D1FD"/>
<path d="M65.36 196.47L106.07 155.81L146.91 196.4L147.08 196.58L106.08 237.2L65.36 196.47Z" fill="#1FBCFD"/>
<path d="M106.08 237.2L147.08 196.58L217.91 267.48C191.23 267.54 164.56 267.46 137.89 267.52C136.37 267.86 135.43 266.47 134.46 265.61L106.08 237.2Z" fill="#08589C"/>
</svg>
