<svg width="658" height="432" viewBox="0 0 658 512" fill="none" xmlns="http://www.w3.org/2000/svg">
<path class="first" d="M478.327 25.7339C517.827 42.8339 554.827 74.9339 588.527 121.534C622.227 168.134 652.727 229.334 647.227 288.934C641.727 348.634 600.327 406.634 545.727 419.034C491.027 431.434 423.027 398.134 370.927 376.334C318.827 354.534 282.527 344.034 223.127 333.234C163.627 322.334 81.0271 311.034 40.0271 266.934C-0.972883 222.734 -0.372894 145.734 45.3271 107.434C90.9271 69.1339 181.627 69.6339 240.827 58.8339C299.927 48.0339 327.427 26.0338 362.227 16.1338C396.927 6.23385 438.927 8.53385 478.327 25.7339Z" stroke="#6600FF" stroke-width="20"/>
<path class="second" d="M473.327 25.7339C512.827 42.8339 549.827 74.9339 583.527 121.534C617.227 168.134 647.727 229.334 642.227 288.934C636.727 348.634 595.327 406.634 540.727 419.034C486.027 431.434 418.027 398.134 365.927 376.334C313.827 354.534 277.527 344.034 218.127 333.234C158.627 322.334 76.0271 311.034 35.0271 266.934C-5.97288 222.734 -5.37289 145.734 40.3271 107.434C85.9271 69.1339 176.627 69.6339 235.827 58.8339C294.927 48.0339 322.427 26.0338 357.227 16.1338C391.927 6.23385 433.927 8.53385 473.327 25.7339Z" stroke="#715DF2" stroke-width="10"/>
</svg>
