<svg width="599" height="512" viewBox="0 0 599 512" fill="none" xmlns="http://www.w3.org/2000/svg">
<path d="M410.076 78.7352C432.376 110.135 430.676 159.335 466.976 210.435C503.276 261.635 577.576 314.735 586.976 365.535C596.276 416.335 540.776 464.735 481.276 486.935C421.876 509.135 358.576 505.035 311.276 483.035C263.976 461.035 232.576 421.235 182.776 395.935C133.076 370.535 64.8762 359.735 33.0762 322.835C1.37625 285.835 6.17627 222.635 24.4763 163.235C42.7763 103.735 74.6763 48.0352 122.076 24.7352C169.476 1.43524 232.376 10.7352 286.976 22.1352C341.476 33.6352 387.776 47.3352 410.076 78.7352Z" stroke="#6600FF" stroke-width="20"/>
<path d="M407.076 74.7352C429.376 106.135 427.676 155.335 463.976 206.435C500.276 257.635 574.576 310.735 583.976 361.535C593.276 412.335 537.776 460.735 478.276 482.935C418.876 505.135 355.576 501.035 308.276 479.035C260.976 457.035 229.576 417.235 179.776 391.935C130.076 366.535 61.8762 355.735 30.0762 318.835C-1.62375 281.835 3.17627 218.635 21.4763 159.235C39.7763 99.7352 71.6763 44.0352 119.076 20.7352C166.476 -2.56476 229.376 6.73524 283.976 18.1352C338.476 29.6352 384.776 43.3352 407.076 74.7352Z" stroke="#715DF2" stroke-width="10"/>
</svg>
