<svg width="538" height="474" viewBox="0 0 538 474" fill="none" xmlns="http://www.w3.org/2000/svg">
<path d="M435.478 13.6056C465.078 27.5056 460.678 95.8055 474.178 154.406C487.678 212.906 519.078 261.706 526.178 321.906C533.278 382.006 516.078 453.706 470.778 462.306C425.378 470.906 351.978 416.506 279.078 415.706C206.178 414.806 133.878 467.706 84.0777 460.506C34.3777 453.406 7.07769 386.206 10.5777 325.806C14.0777 265.506 48.2777 211.906 70.4777 157.706C92.5777 103.506 102.678 48.7055 135.278 35.9055C167.978 23.0055 223.178 52.2055 282.678 46.4055C342.178 40.6055 405.878 -0.194443 435.478 13.6056Z" stroke="#6600FF" stroke-width="20"/>
<path d="M435.478 13.6056C465.078 27.5056 460.678 95.8055 474.178 154.406C487.678 212.906 519.078 261.706 526.178 321.906C533.278 382.006 516.078 453.706 470.778 462.306C425.378 470.906 351.978 416.506 279.078 415.706C206.178 414.806 133.878 467.706 84.0777 460.506C34.3777 453.406 7.07769 386.206 10.5777 325.806C14.0777 265.506 48.2777 211.906 70.4777 157.706C92.5777 103.506 102.678 48.7055 135.278 35.9055C167.978 23.0055 223.178 52.2055 282.678 46.4055C342.178 40.6055 405.878 -0.194443 435.478 13.6056Z" stroke="#715DF2" stroke-width="10"/>
</svg>
