<svg width="260" height="60" viewBox="0 0 260 60" fill="none" xmlns="http://www.w3.org/2000/svg">
<g clip-path="url(#clip0_209_387)">
<path d="M0 29.9846L29.8646 0L59.6991 30.0149H42.6899L29.8345 17.1384L17.0097 30.0154L29.8641 42.8919V30.0154H42.6894V47.2739L29.8641 60.0005L0 29.9846Z" fill="white"/>
<path d="M94.4863 32.4207C94.389 33.1903 94.3323 33.6544 94.1223 34.4318C93.9158 35.186 93.6305 35.9161 93.271 36.61C92.8895 37.34 92.4235 38.0223 91.8826 38.6425C90.6666 40.1143 89.128 41.2838 87.3872 42.0597C85.5936 42.8323 83.6595 43.222 81.7078 43.2041C80.4677 43.2108 79.2328 43.0439 78.0387 42.7081C76.8784 42.3687 75.7675 41.8778 74.7346 41.2478C73.7345 40.6493 72.8181 39.9198 72.0098 39.0785C71.205 38.2435 70.5072 37.3109 69.9324 36.3025C69.3482 35.2816 68.9016 34.1872 68.6043 33.0483C68.2899 31.8818 68.1325 30.6783 68.1363 29.4698C68.1315 27.0083 68.7591 24.5871 69.9584 22.4403C71.1087 20.3784 72.7834 18.66 74.8115 17.4605C75.8559 16.8526 76.9751 16.3847 78.1406 16.0686C79.356 15.7366 80.6104 15.5697 81.87 15.5726C83.098 15.5665 84.322 15.7129 85.5142 16.0086C86.6379 16.2894 87.722 16.7113 88.7408 17.2642C89.742 17.8156 90.6691 18.4929 91.4999 19.2795C92.351 20.0926 93.1026 21.0045 93.739 21.996L91.4146 23.3795C90.3728 21.7698 88.9702 20.4272 87.3191 19.4591C85.625 18.5072 83.7085 18.0266 81.7676 18.0667C80.7873 18.062 79.8118 18.2031 78.8727 18.4854C77.9718 18.7558 77.1123 19.1497 76.3185 19.6559C75.52 20.163 74.7877 20.7683 74.1387 21.4577C73.4751 22.1501 72.9028 22.9251 72.4357 23.7638C71.9572 24.6082 71.5855 25.5091 71.3291 26.4458C71.0728 27.3983 70.9437 28.3808 70.9453 29.3675C70.9422 30.3736 71.0713 31.3758 71.3291 32.3481C71.576 33.2869 71.9394 34.1907 72.4107 35.0385C72.8776 35.8719 73.4498 36.6412 74.1132 37.3274C74.77 38.0173 75.5143 38.6176 76.3268 39.1129C77.1588 39.6168 78.0558 40.0042 78.9918 40.2657C79.9554 40.542 80.9532 40.68 81.9553 40.6756C83.2048 40.6773 84.4455 40.4665 85.6249 40.0522C86.7539 39.6549 87.7992 39.0495 88.707 38.2671C89.6039 37.486 90.3412 36.5373 90.878 35.4739C91.4323 34.3305 91.7344 33.4926 91.7641 32.2213H82.9766V29.8473H94.5757C94.5757 29.817 94.6131 31.4219 94.4863 32.4207Z" fill="white"/>
<path d="M110.985 42.7415V39.7572H110.916C110.648 40.2967 110.281 40.7811 109.836 41.1852C109.383 41.6116 108.873 41.9714 108.32 42.2539C107.759 42.5442 107.164 42.765 106.55 42.9117C105.941 43.0579 105.319 43.1326 104.694 43.1347C103.524 43.1519 102.363 42.9187 101.289 42.4507C100.287 42.0103 99.3881 41.3636 98.6504 40.5524C97.9039 39.7171 97.3257 38.7444 96.948 37.6881C96.5317 36.5404 96.3241 35.3269 96.3349 34.1055C96.3241 32.9209 96.5289 31.7443 96.9391 30.6336C97.3198 29.5942 97.898 28.639 98.6416 27.821C99.3831 27.0163 100.281 26.373 101.281 25.931C102.354 25.4621 103.515 25.2261 104.686 25.2387C105.308 25.2362 105.928 25.308 106.533 25.4528C107.122 25.5984 107.693 25.8105 108.235 26.0851C108.794 26.3538 109.315 26.6961 109.785 27.1031C110.237 27.4999 110.627 27.9646 110.942 28.4789H111.01V25.6402H113.564V42.7415H110.985ZM111.087 33.9682C111.095 33.0942 110.948 32.2257 110.653 31.4037C110.368 30.6362 109.944 29.9287 109.401 29.3174C108.852 28.715 108.186 28.2319 107.444 27.8978C106.639 27.5444 105.768 27.3664 104.889 27.3757C104.01 27.363 103.138 27.5441 102.336 27.9061C101.602 28.2523 100.949 28.7505 100.421 29.368C99.8824 29.9978 99.4719 30.7271 99.212 31.5149C98.9338 32.3645 98.7958 33.254 98.8033 34.1483C98.8022 35.0219 98.949 35.8893 99.2375 36.7134C99.5231 37.5061 99.9467 38.2415 100.489 38.8853C101.037 39.5139 101.706 40.0256 102.455 40.39C103.253 40.7702 104.126 40.963 105.008 40.9539C105.87 40.9744 106.725 40.7944 107.507 40.4281C108.288 40.0617 108.974 39.5189 109.512 38.842C110.04 38.1763 110.439 37.4164 110.687 36.6022C110.953 35.7497 111.087 34.8615 111.087 33.9682Z" fill="white"/>
<path d="M135.941 42.7165V32.0265C136.048 30.7794 135.749 29.531 135.089 28.469C134.756 28.089 134.34 27.7923 133.873 27.6027C133.405 27.4131 132.901 27.3357 132.398 27.3767C131.828 27.3353 131.257 27.4432 130.74 27.69C130.224 27.9369 129.78 28.3141 129.453 28.7848C128.75 30.017 128.421 31.4285 128.507 32.8457V42.7165H125.953V32.581C125.96 31.8008 125.897 31.0215 125.766 30.2524C125.665 29.6715 125.453 29.1153 125.144 28.6141C124.871 28.1917 124.48 27.8594 124.02 27.6587C123.482 27.4322 122.901 27.3244 122.317 27.3428C121.752 27.3179 121.191 27.4457 120.693 27.7129C120.194 27.98 119.776 28.3767 119.482 28.8616C118.737 30.2762 118.398 31.8711 118.503 33.468V42.7165H115.949V25.6538H118.503V27.8122H118.571C118.976 27.0212 119.596 26.3617 120.359 25.9096C121.188 25.4551 122.122 25.2284 123.066 25.2523C124.08 25.2419 125.08 25.5008 125.962 26.0031C126.892 26.558 127.627 27.3902 128.064 28.3839C128.493 27.4242 129.195 26.6137 130.082 26.0548C131.017 25.5009 132.088 25.2228 133.173 25.2523C133.932 25.1939 134.695 25.3095 135.403 25.5904C136.111 25.8712 136.746 26.3099 137.26 26.8734C138.225 28.2131 138.694 29.8482 138.588 31.4977V42.7165H135.941Z" fill="white"/>
<path d="M143.211 34.5775C143.223 35.4998 143.404 36.412 143.747 37.2679C144.053 38.0353 144.514 38.7297 145.101 39.3093C145.67 39.8735 146.348 40.3153 147.093 40.6077C147.868 40.9178 148.695 41.0745 149.528 41.0687C150.704 41.0965 151.861 40.7691 152.849 40.129C153.814 39.4657 154.615 38.5893 155.191 37.567L157.344 38.1392C157.003 38.9102 156.546 39.6244 155.991 40.2574C155.452 40.8684 154.823 41.3926 154.126 41.8117C153.417 42.25 152.648 42.5837 151.844 42.8026C151.01 43.0205 150.152 43.1296 149.29 43.1274C148.069 43.1449 146.857 42.9094 145.731 42.4356C144.707 41.9953 143.782 41.3501 143.015 40.5393C142.266 39.7163 141.687 38.7524 141.312 37.7033C140.9 36.5767 140.695 35.3844 140.708 34.1843C140.699 32.995 140.906 31.8141 141.321 30.6999C141.715 29.6576 142.305 28.7008 143.057 27.8811C143.815 27.0656 144.73 26.4144 145.748 25.9676C146.843 25.4895 148.028 25.2509 149.222 25.2674C150.453 25.2445 151.676 25.474 152.815 25.942C153.835 26.3683 154.745 27.0194 155.48 27.8471C156.225 28.7029 156.787 29.7027 157.132 30.785C157.519 32.0162 157.7 33.3034 157.668 34.5942L143.211 34.5775ZM154.501 30.597C154.223 29.9521 153.837 29.3598 153.36 28.8459C152.882 28.3421 152.301 27.9487 151.657 27.6931C150.892 27.3976 150.076 27.2555 149.256 27.2749C148.475 27.2657 147.7 27.4106 146.974 27.7015C146.302 27.9705 145.687 28.3647 145.161 28.8631C144.65 29.3573 144.227 29.935 143.909 30.5714C143.59 31.2553 143.392 31.9891 143.321 32.7407H155.156C155.022 32.0029 154.802 31.2833 154.501 30.597Z" fill="white"/>
<path d="M187.26 42.7337L183.292 22.0299H183.225L174.565 43.4438H173.926L165.412 22.0299H165.336L161.299 42.7342H158.592L164.058 15.2996H165.48L174.344 37.5926L183.318 15.2996H184.765L190.095 42.7342L187.26 42.7337Z" fill="white"/>
<path d="M205.596 42.7426V39.7583H205.529C205.26 40.2979 204.893 40.7822 204.447 41.1862C203.995 41.6127 203.485 41.9725 202.932 42.2554C202.37 42.5452 201.776 42.7661 201.162 42.9133C199.404 43.3237 197.562 43.1623 195.901 42.4518C194.899 42.0114 194 41.3646 193.262 40.5534C192.516 39.7181 191.938 38.7454 191.56 37.6892C191.144 36.5412 190.936 35.3276 190.947 34.106C190.936 32.9214 191.141 31.7448 191.551 30.6341C191.932 29.5946 192.51 28.6393 193.253 27.821C193.995 27.0163 194.893 26.373 195.892 25.931C196.966 25.4618 198.126 25.2259 199.297 25.2387C199.919 25.2361 200.539 25.3079 201.144 25.4528C201.734 25.5983 202.305 25.8104 202.847 26.085C203.385 26.3582 203.886 26.7005 204.337 27.1031C204.789 27.4999 205.18 27.9646 205.494 28.4794H205.562V25.6402H208.116V42.7426H205.596ZM205.699 33.9692C205.707 33.0951 205.56 32.2264 205.264 31.4042C204.99 30.649 204.58 29.9504 204.056 29.3429C203.507 28.7407 202.84 28.2578 202.098 27.9239C201.293 27.5703 200.423 27.3923 199.544 27.4018C198.665 27.3888 197.793 27.5699 196.99 27.9322C196.256 28.27 195.6 28.7594 195.067 29.3685C194.522 29.9967 194.106 30.7259 193.841 31.5149C193.563 32.3646 193.425 33.2543 193.432 34.1488C193.431 35.0226 193.578 35.8901 193.866 36.7144C194.152 37.5072 194.576 38.2426 195.118 38.8864C195.667 39.5149 196.335 40.0266 197.084 40.391C197.882 40.7714 198.755 40.9642 199.637 40.9549C200.537 40.9758 201.426 40.779 202.234 40.3827C202.972 40.0122 203.622 39.4874 204.141 38.8435C204.669 38.1776 205.068 37.4175 205.315 36.6032C205.576 35.7496 205.705 34.8615 205.699 33.9692Z" fill="white"/>
<path d="M220.993 42.7421L213.796 34.412L213.055 35.0871V42.7765H210.5V13.4461H213.055V32.6609L220.32 25.6548H223.582L215.696 33.1308L224.212 42.7421H220.994" fill="white"/>
<path d="M226.214 34.5775C226.217 35.5008 226.4 36.4145 226.751 37.2679C227.056 38.0354 227.517 38.7297 228.104 39.3093C228.674 39.8735 229.351 40.3153 230.096 40.6077C230.868 40.9176 231.692 41.0742 232.523 41.0687C233.701 41.0924 234.859 40.7654 235.852 40.129C236.815 39.4648 237.613 38.5885 238.186 37.567L240.34 38.1393C239.671 39.6679 238.546 40.9508 237.121 41.8117C236.423 42.2484 235.666 42.5821 234.873 42.8026C234.039 43.0212 233.181 43.1303 232.319 43.1274C231.101 43.1456 229.892 42.91 228.768 42.4356C227.742 41.9995 226.817 41.3538 226.052 40.5393C225.286 39.7222 224.692 38.7574 224.307 37.7033C223.892 36.5773 223.684 35.3849 223.694 34.1844C223.683 32.9942 223.894 31.8125 224.315 30.6999C224.697 29.6542 225.276 28.6915 226.018 27.8638C226.774 27.0467 227.69 26.3954 228.709 25.9509C229.801 25.4723 230.983 25.2334 232.174 25.2502C233.405 25.2266 234.628 25.4561 235.768 25.9248C236.788 26.353 237.701 27.0038 238.441 27.8299C239.183 28.6863 239.742 29.6863 240.084 30.7683C240.47 32.0001 240.654 33.2865 240.629 34.5775H226.214ZM237.496 30.597C237.221 29.9506 236.835 29.3578 236.355 28.8459C235.877 28.3431 235.295 27.9499 234.652 27.6931C233.883 27.3983 233.065 27.2563 232.243 27.2749C231.464 27.2668 230.692 27.4117 229.969 27.7015C229.296 27.9685 228.68 28.3629 228.155 28.8631C227.64 29.3531 227.216 29.9317 226.904 30.5714C226.583 31.2549 226.381 31.9887 226.308 32.7408H238.143C238.015 32.0022 237.798 31.2823 237.496 30.597Z" fill="white"/>
<path d="M249.577 27.8137C249.255 27.7453 248.927 27.711 248.598 27.7114C248.078 27.7049 247.566 27.8477 247.123 28.123C246.68 28.3983 246.324 28.7947 246.097 29.2657C245.423 30.7854 245.13 32.4483 245.246 34.1081V42.7165H242.694V25.636H245.246V27.9677H245.314C245.615 27.1513 246.168 26.4527 246.892 25.9735C247.616 25.4942 248.473 25.2593 249.339 25.3029C249.625 25.3029 249.911 25.3369 250.19 25.4053C250.48 25.4693 250.765 25.5579 251.04 25.67L250.479 28.1552C250.197 27.9973 249.893 27.8822 249.577 27.8137Z" fill="white"/>
<path d="M252.83 17.4433V22.0654H252.308V17.4438H251.058V16.9776H254.08V17.4438L252.83 17.4433Z" fill="white"/>
<path d="M259.483 22.0654L258.744 18.2176L257.132 22.0654H257.016L255.422 18.2176L254.665 22.0654H254.14L255.155 16.9776H255.413L257.07 21.0969L258.735 16.9776H259.011L260 22.0654H259.483Z" fill="white"/>
</g>
<defs>
<clipPath id="clip0_209_387">
<rect width="260" height="60" fill="white"/>
</clipPath>
</defs>
</svg>
