<svg width="118" height="202" viewBox="0 0 118 202" fill="none" xmlns="http://www.w3.org/2000/svg">
<path d="M40.6177 107.92C40.6177 107.92 35.799 110.857 43.971 111.697C53.8401 112.957 59.0579 112.746 69.9525 110.649C69.9525 110.649 72.8853 112.54 76.8673 114.008C52.349 124.501 21.3386 113.378 40.6177 107.92ZM37.4746 94.2781C37.4746 94.2781 32.2354 98.2666 40.4074 99.1046C51.0918 100.153 59.4762 100.364 73.9344 97.4285C73.9344 97.4285 75.8225 99.528 78.9634 100.577C49.4205 109.392 16.3118 101.413 37.4746 94.2781ZM95.3075 118.204C95.3075 118.204 98.8689 121.142 91.3255 123.452C77.2857 127.649 32.4457 128.91 19.8733 123.452C15.4751 121.561 23.8553 118.832 26.5778 118.415C29.3026 117.785 30.7679 117.785 30.7679 117.785C25.9492 114.427 -1.29162 124.711 16.9383 127.67C67.0175 135.858 108.298 124.103 95.3053 118.226L95.3075 118.204ZM42.9219 80.0049C42.9219 80.0049 20.0814 85.4632 34.7477 87.35C41.0339 88.188 53.396 87.9796 64.9214 87.1394C74.3507 86.3013 83.8014 84.6208 83.8014 84.6208C83.8014 84.6208 80.4481 86.0907 78.1438 87.5584C54.8657 93.6506 10.2338 90.9215 23.0164 84.6251C33.9153 79.3774 42.9219 80.0049 42.9219 80.0049ZM83.7799 102.882C107.251 90.7088 96.3523 78.9562 88.8089 80.4261C86.9209 80.8451 86.0842 81.2642 86.0842 81.2642C86.0842 81.2642 86.7128 80.0049 88.1803 79.588C103.057 74.3403 114.792 95.329 83.3616 103.514C83.3616 103.514 83.5718 103.302 83.7799 102.882ZM45.2261 136.041C67.8564 137.51 102.43 135.202 103.269 124.496C103.269 124.496 101.596 128.693 84.621 131.842C65.3441 135.409 41.4544 134.99 27.4167 132.68C27.4167 132.68 30.3495 135.198 45.2283 136.038L45.2261 136.041Z" fill="#4E7896"/>
<path d="M69.5127 10.7447C69.5127 10.7447 82.5034 23.9671 57.1506 43.9028C36.8245 60.0628 52.5378 69.2989 57.1506 79.79C45.2068 69.0883 36.6185 59.6416 42.4821 50.8266C51.0939 37.8213 74.769 31.5249 69.5127 10.7447ZM62.8081 70.9794C68.884 77.9054 61.1347 84.2018 61.1347 84.2018C61.1347 84.2018 76.6399 76.2292 69.517 66.3613C63.0205 56.9167 57.9916 52.2987 85.2324 36.5556C85.2324 36.5556 42.2761 47.2573 62.8124 70.9751L62.8081 70.9794Z" fill="#F58219"/>
<path d="M51.9952 180.973V160.407C51.9952 155.16 49.0623 151.592 41.727 151.592C37.537 151.592 33.9734 152.641 30.8281 153.9L31.8751 157.678C34.1793 156.84 37.1143 156.002 40.2574 156.002C44.2394 156.002 46.1252 157.678 46.1252 161.039V163.768H44.0291C33.9712 163.768 29.3606 167.546 29.3606 173.653C29.3606 178.69 32.5037 181.626 38.1613 181.626C41.7227 181.626 44.4475 179.95 46.9619 177.848L47.3803 180.996H51.993L51.9952 180.973ZM46.1274 174.257C44.0313 176.148 41.7292 177.195 39.6309 177.195C36.9062 177.195 35.2327 175.519 35.2327 172.575C35.2327 169.631 36.9062 167.538 43.615 167.538H46.1274V174.253V174.257ZM71.6905 180.973H64.3573L55.5566 152.22H61.8428L67.2923 169.85L68.5495 175.097C71.2742 167.542 73.3682 159.776 74.2071 152.22H80.4933C78.8198 161.664 75.8784 171.947 71.6905 180.973ZM105.636 180.973V160.407C105.636 155.16 102.703 151.592 95.3677 151.592C91.1776 151.592 87.614 152.641 84.4688 153.9L85.3055 157.678C87.82 156.84 90.755 156.002 93.8959 156.002C97.8779 156.002 99.7637 157.678 99.7637 161.039V163.768H97.6676C87.6097 163.768 82.9991 167.546 82.9991 173.653C82.9991 178.69 85.932 181.626 91.5895 181.626C95.3613 181.626 98.086 179.95 100.6 177.848L101.019 180.996H105.632L105.636 180.973ZM99.768 174.257C97.6719 176.148 95.3698 177.195 93.2716 177.195C90.5469 177.195 88.8734 175.519 88.8734 172.575C88.8734 169.631 90.5469 167.538 97.2557 167.538H99.7702V174.253L99.768 174.257ZM22.8706 185.797C21.1972 188.316 18.6806 190.202 15.5375 191.255L12.8127 187.897C14.9089 186.637 17.0028 184.748 17.8417 183.07C18.6784 181.6 18.8887 179.503 18.8887 174.674V141.937H25.1749V174.257C25.1749 180.764 24.5462 183.283 22.8706 185.801V185.797Z" fill="#4E7896"/>
</svg>
