<svg width="83" height="83" viewBox="0 0 83 83" fill="none" xmlns="http://www.w3.org/2000/svg">
<g clip-path="url(#clip0_206_195)">
<path d="M83 0H0V83H83V0Z" fill="#F7DF1E"/>
<path d="M55.7549 64.8441C57.4268 67.5739 59.6019 69.5804 63.4489 69.5804C66.6806 69.5804 68.745 67.9652 68.745 65.7334C68.745 63.059 66.6239 62.1117 63.0668 60.5558L61.117 59.7192C55.4888 57.3214 51.7498 54.3176 51.7498 47.9675C51.7498 42.1179 56.2068 37.6649 63.1722 37.6649C68.1311 37.6649 71.6962 39.3908 74.2652 43.9097L68.1917 47.8094C66.8545 45.4116 65.4119 44.467 63.1722 44.467C60.8877 44.467 59.4398 45.9162 59.4398 47.8094C59.4398 50.1492 60.889 51.0964 64.2354 52.5456L66.1852 53.3809C72.812 56.2227 76.5536 59.1198 76.5536 65.6333C76.5536 72.6553 71.0374 76.5023 63.6293 76.5023C56.386 76.5023 51.7063 73.0506 49.4166 68.5264L55.7549 64.8441ZM28.2028 65.52C29.4281 67.6938 30.5427 69.5316 33.2224 69.5316C35.7848 69.5316 37.4014 68.5291 37.4014 64.6307V38.1102H45.2007V64.7361C45.2007 72.8121 40.4658 76.4878 33.5544 76.4878C27.3096 76.4878 23.6932 73.2561 21.854 69.3637L28.2028 65.52Z" fill="black"/>
</g>
<defs>
<clipPath id="clip0_206_195">
<rect width="83" height="83" fill="white"/>
</clipPath>
</defs>
</svg>
