<svg width="159" height="159" viewBox="0 0 159 159" fill="none" xmlns="http://www.w3.org/2000/svg">
<path d="M132.511 73H39.4889C36.4575 73 34 75.7646 34 79.175V79.825C34 83.2354 36.4575 86 39.4889 86H132.511C135.543 86 138 83.2354 138 79.825V79.175C138 75.7646 135.543 73 132.511 73Z" fill="white"/>
<path d="M133.356 106H54.6444C52.0794 106 50 108.765 50 112.175V112.825C50 116.235 52.0794 119 54.6444 119H133.356C135.921 119 138 116.235 138 112.825V112.175C138 108.765 135.921 106 133.356 106Z" fill="white"/>
<path d="M132.207 39.563H26.0464C22.5868 39.563 19.7822 42.3675 19.7822 45.8271V46.4865C19.7822 49.9461 22.5868 52.7507 26.0464 52.7507H132.207C135.667 52.7507 138.472 49.9461 138.472 46.4865V45.8271C138.472 42.3675 135.667 39.563 132.207 39.563Z" fill="white"/>
</svg>
