<svg width="143" height="143" viewBox="0 0 143 143" fill="none" xmlns="http://www.w3.org/2000/svg">
<path d="M67.0551 126.643C67.1781 126.663 67.2722 126.719 67.3374 126.81C67.4026 126.902 67.425 127.009 67.4045 127.132L65.5874 138.031C65.5669 138.154 65.511 138.248 65.4197 138.314C65.3284 138.379 65.2213 138.401 65.0983 138.381L62.9351 138.02C62.8122 138 62.7181 137.944 62.6529 137.852C62.5877 137.761 62.5653 137.654 62.5858 137.531L63.2595 133.49L59.1177 132.799L58.444 136.84C58.4235 136.963 58.3676 137.058 58.2763 137.123C58.185 137.188 58.0778 137.21 57.9549 137.19L55.7917 136.829C55.6688 136.809 55.5747 136.753 55.5095 136.661C55.4443 136.57 55.4219 136.463 55.4424 136.34L57.2595 125.44C57.28 125.318 57.3359 125.223 57.4272 125.158C57.5185 125.093 57.6256 125.071 57.7486 125.091L59.9117 125.452C60.0347 125.472 60.1288 125.528 60.194 125.619C60.2592 125.711 60.2816 125.818 60.2611 125.941L59.565 130.116L63.7068 130.807L64.4029 126.631C64.4234 126.508 64.4793 126.414 64.5706 126.349C64.6619 126.284 64.769 126.262 64.892 126.282L67.0551 126.643Z" />
<path d="M47.0452 120.785C47.8974 121.21 48.5496 121.705 49.0016 122.272C49.4435 122.834 49.6954 123.447 49.7574 124.111C49.8041 124.78 49.671 125.479 49.358 126.21C49.2671 126.418 49.1585 126.649 49.0322 126.902C48.9009 127.166 48.7822 127.392 48.6761 127.579C48.2768 128.28 47.7886 128.802 47.2114 129.148C46.6342 129.494 45.9882 129.66 45.2736 129.646C44.5488 129.627 43.7755 129.412 42.9537 129.003C42.1218 128.589 41.4848 128.101 41.0429 127.539C40.5909 126.972 40.3288 126.354 40.2567 125.685C40.1847 125.017 40.3076 124.312 40.6257 123.571C40.7115 123.373 40.8201 123.143 40.9514 122.879C41.0777 122.625 41.1965 122.4 41.3076 122.202C41.7018 121.512 42.185 120.986 42.7571 120.625C43.314 120.27 43.9549 120.101 44.6797 120.12C45.3944 120.134 46.1829 120.356 47.0452 120.785ZM46.1208 122.642C45.6643 122.415 45.2664 122.388 44.9271 122.56C44.5777 122.728 44.2513 123.079 43.9481 123.611C43.8622 123.758 43.7561 123.959 43.6298 124.212C43.5035 124.466 43.4076 124.672 43.342 124.829C43.1047 125.382 43.0244 125.848 43.1011 126.228C43.1625 126.613 43.4215 126.919 43.8781 127.147C44.3245 127.369 44.7249 127.391 45.0794 127.213C45.4288 127.045 45.7476 126.697 46.0356 126.17C46.1215 126.023 46.2276 125.822 46.3539 125.569C46.4802 125.315 46.5761 125.11 46.6417 124.952C46.8942 124.394 46.9821 123.925 46.9054 123.545C46.8288 123.165 46.5672 122.864 46.1208 122.642Z" />
<path d="M37.0118 114.666C37.108 114.745 37.1615 114.841 37.1723 114.952C37.1832 115.064 37.1489 115.168 37.0697 115.264L29.9373 123.925C29.858 124.022 29.7626 124.075 29.6509 124.086C29.5392 124.097 29.4353 124.063 29.339 123.983L27.7905 122.708C27.6943 122.629 27.6407 122.533 27.6299 122.422C27.6191 122.31 27.6533 122.206 27.7326 122.11L34.865 113.449C34.9443 113.352 35.0397 113.299 35.1514 113.288C35.2631 113.277 35.367 113.311 35.4632 113.391L37.0118 114.666Z" />
<path d="M28.3486 105.83C28.6799 106.262 28.9128 106.704 29.0472 107.159C29.1657 107.611 29.1868 108.066 29.1105 108.525C29.0182 108.981 28.8306 109.426 28.5477 109.857C28.2558 110.296 27.865 110.717 27.3755 111.122C27.2027 111.269 27.0488 111.394 26.914 111.498C26.7702 111.608 26.6094 111.725 26.4318 111.847C25.9326 112.202 25.438 112.46 24.9479 112.622C24.4579 112.784 23.9804 112.851 23.5153 112.822C23.0503 112.793 22.6113 112.659 22.1982 112.419C21.7762 112.186 21.3995 111.853 21.0681 111.422C20.723 110.973 20.5025 110.527 20.4068 110.087C20.3021 109.652 20.2803 109.233 20.3414 108.829L17.4562 111.045C17.3573 111.121 17.2523 111.152 17.141 111.137C17.0298 111.123 16.9362 111.066 16.8603 110.967L15.5969 109.322C15.5279 109.232 15.5007 109.132 15.5153 109.02C15.523 108.9 15.5762 108.802 15.6751 108.726L24.5734 101.892C24.6723 101.816 24.7808 101.79 24.8989 101.813C25.0102 101.828 25.1003 101.88 25.1693 101.97L26.3395 103.494C26.4154 103.592 26.4461 103.697 26.4315 103.809C26.4169 103.92 26.3601 104.014 26.2613 104.089L25.8298 104.421C26.2562 104.436 26.6859 104.549 27.119 104.76C27.5521 104.97 27.962 105.327 28.3486 105.83ZM25.9828 106.49C25.748 106.184 25.5022 105.994 25.2452 105.92C24.9723 105.844 24.7014 105.845 24.4326 105.923C24.1568 105.992 23.8941 106.115 23.6445 106.292C23.4579 106.421 23.2836 106.548 23.1219 106.672C22.9601 106.796 22.7972 106.929 22.6334 107.069C22.4156 107.25 22.2468 107.459 22.1271 107.693C21.9984 107.935 21.9446 108.191 21.9659 108.46C21.9781 108.737 22.0947 109.019 22.3156 109.306C22.5434 109.603 22.7893 109.793 23.0532 109.876C23.3102 109.95 23.5741 109.94 23.8451 109.847C24.116 109.753 24.3887 109.615 24.6632 109.433C24.9625 109.245 25.2412 109.031 25.4991 108.79C25.7459 108.572 25.9496 108.344 26.1101 108.107C26.2706 107.869 26.3482 107.617 26.3428 107.349C26.3306 107.073 26.2106 106.786 25.9828 106.49Z" />
<path d="M17.3214 83.223C17.4971 83.9267 17.5395 84.5644 17.4487 85.1362C17.3441 85.6996 17.0897 86.1778 16.6855 86.5708C16.2704 86.9665 15.6835 87.2591 14.9248 87.4486L11.758 88.2394L12.0793 89.5259C12.1095 89.6468 12.0971 89.7609 12.0421 89.8681C11.9843 89.9643 11.895 90.0275 11.774 90.0577L10.4381 90.3913C10.3171 90.4215 10.2085 90.4077 10.1123 90.35C10.0134 90.2813 9.94884 90.1864 9.91863 90.0655L9.59736 88.779L6.87594 89.4586C6.75498 89.4888 6.64641 89.475 6.55022 89.4173C6.45128 89.3485 6.38809 89.2592 6.36063 89.1492L5.88284 87.236C5.85264 87.115 5.86641 87.0064 5.92416 86.9103C5.9819 86.8141 6.07125 86.7509 6.19221 86.7207L8.91363 86.041L8.39877 83.9794C8.36857 83.8584 8.38234 83.7498 8.44009 83.6536C8.49784 83.5575 8.58719 83.4943 8.70814 83.4641L10.0441 83.1304C10.1651 83.1002 10.2736 83.114 10.3698 83.1717C10.466 83.2295 10.5292 83.3188 10.5594 83.4398L11.0743 85.5015L14.0101 84.7683C14.384 84.675 14.663 84.5293 14.8472 84.3315C15.0314 84.1336 15.081 83.8643 14.9959 83.5234L14.6787 82.2534C14.6485 82.1324 14.6623 82.0239 14.72 81.9277C14.7778 81.8315 14.8671 81.7683 14.9881 81.7381L16.423 81.3797C16.544 81.3495 16.6525 81.3633 16.7487 81.4211C16.8449 81.4788 16.9081 81.5682 16.9383 81.6891L17.3214 83.223Z" />
<path d="M16.213 71.1601C16.205 72.112 16.0452 72.9154 15.7337 73.5701C15.4223 74.2135 14.9818 74.7085 14.4122 75.0551C13.8314 75.3902 13.1441 75.5771 12.3504 75.6158C12.1237 75.6252 11.8686 75.6287 11.5853 75.6263C11.2906 75.6239 11.0357 75.616 10.8205 75.6029C10.0162 75.5508 9.33229 75.341 8.76869 74.9736C8.20509 74.6062 7.77301 74.0982 7.47245 73.4497C7.17199 72.7898 7.02561 72.0009 7.03333 71.0829C7.04114 70.1536 7.20075 69.3673 7.51217 68.7239C7.82368 68.0691 8.26429 67.5628 8.83398 67.2049C9.40368 66.847 10.091 66.6488 10.8961 66.6102C11.1115 66.6007 11.3665 66.5972 11.6612 66.5996C11.9445 66.602 12.1994 66.6098 12.426 66.6231C13.2189 66.6751 13.9029 66.8792 14.4779 67.2353C15.0417 67.5801 15.4738 68.0824 15.7743 68.7423C16.0749 69.3908 16.2211 70.1968 16.213 71.1601ZM14.1391 71.1426C14.1434 70.6326 13.9935 70.263 13.6894 70.0338C13.3854 69.7932 12.9275 69.6534 12.3159 69.6143C12.146 69.6015 11.9193 69.5939 11.636 69.5915C11.3527 69.5892 11.126 69.5929 10.9559 69.6028C10.355 69.6318 9.90051 69.764 9.59252 69.9994C9.2733 70.2234 9.11154 70.5904 9.10725 71.1003C9.10306 71.599 9.25863 71.9686 9.57395 72.2093C9.87794 72.4499 10.3302 72.584 10.9306 72.6117C11.1005 72.6245 11.3271 72.6321 11.6105 72.6344C11.8938 72.6368 12.1205 72.6331 12.2906 72.6231C12.9027 72.6056 13.3628 72.4792 13.6708 72.2437C13.9788 72.0083 14.1349 71.6413 14.1391 71.1426Z" />
<path d="M19.4249 51.1683C19.3664 51.2784 19.2835 51.3498 19.1763 51.3827C19.069 51.4155 18.9603 51.4026 18.8502 51.3441L11.7946 47.5946C11.6845 47.5361 11.6131 47.4532 11.5802 47.346C11.5474 47.2387 11.5603 47.13 11.6188 47.0199L12.4883 45.3836C12.5468 45.2735 12.6297 45.2021 12.737 45.1692C12.8443 45.1364 12.953 45.1492 13.0631 45.2078L13.5735 45.479C13.4096 45.1352 13.3233 44.73 13.3147 44.2634C13.296 43.7914 13.4119 43.3076 13.6625 42.8119C14.2541 41.6503 15.1096 41.091 16.229 41.134C15.971 40.7018 15.8363 40.2066 15.8248 39.6486C15.8033 39.0853 15.9282 38.5485 16.1994 38.0381C16.4759 37.5177 16.8434 37.1161 17.3016 36.8334C17.7552 36.5354 18.2936 36.3916 18.917 36.402C19.5303 36.4071 20.2223 36.6144 20.9929 37.0239L25.2563 39.2896C25.3664 39.3481 25.4351 39.436 25.4627 39.5533C25.4955 39.6606 25.4853 39.7643 25.4321 39.8643L24.5067 41.6057C24.4482 41.7158 24.3627 41.7923 24.2501 41.8351C24.1428 41.8679 24.0341 41.8551 23.924 41.7966L19.7657 39.5868C19.4154 39.4006 19.1136 39.3044 18.8603 39.2981C18.5969 39.2865 18.375 39.3418 18.1945 39.4641C18.014 39.5864 17.8653 39.7576 17.7483 39.9778C17.6525 40.1579 17.6019 40.362 17.5962 40.59C17.5958 40.808 17.6715 41.0279 17.8232 41.2497C17.9701 41.4561 18.2188 41.6524 18.5691 41.8386L22.7273 44.0484C22.8374 44.1069 22.9089 44.1898 22.9417 44.297C22.9745 44.4043 22.9617 44.513 22.9032 44.6231L21.9778 46.3645C21.9193 46.4746 21.8364 46.546 21.7291 46.5789C21.6218 46.6117 21.5131 46.5988 21.4031 46.5403L17.2448 44.3305C16.8945 44.1444 16.59 44.0532 16.3314 44.0569C16.0627 44.0553 15.8381 44.1156 15.6576 44.2379C15.4771 44.3602 15.331 44.5264 15.2194 44.7365C15.1236 44.9167 15.0729 45.1208 15.0673 45.3488C15.0669 45.5668 15.1426 45.7867 15.2943 46.0084C15.4412 46.2149 15.6849 46.4085 16.0251 46.5893L20.1984 48.8071C20.3085 48.8656 20.3773 48.9535 20.4048 49.0708C20.4376 49.1781 20.4248 49.2868 20.3663 49.3969L19.4249 51.1683Z" />
<path d="M33.155 31.5526C32.4645 32.208 31.7756 32.6511 31.0882 32.8817C30.409 33.1045 29.7469 33.1314 29.102 32.9623C28.4575 32.7771 27.8457 32.4125 27.2666 31.8683C27.1023 31.7117 26.9227 31.5307 26.7276 31.3252C26.5247 31.1115 26.3533 30.9226 26.2133 30.7587C25.6921 30.1439 25.368 29.5061 25.2409 28.8455C25.1138 28.1848 25.1792 27.5211 25.4371 26.8544C25.7031 26.1799 26.1691 25.5267 26.8349 24.8947C27.5089 24.2549 28.1855 23.8235 28.8647 23.6007C29.5521 23.3701 30.2224 23.3354 30.8755 23.4967C31.5287 23.658 32.1487 24.0149 32.7356 24.5673C32.892 24.7156 33.0717 24.8967 33.2746 25.1104C33.4697 25.3159 33.6411 25.5047 33.7889 25.6769C34.3022 26.2835 34.6305 26.9174 34.7736 27.5784C34.9171 28.2235 34.8559 28.8833 34.5898 29.5578C34.3319 30.2244 33.8537 30.8894 33.155 31.5526ZM31.7271 30.0484C32.097 29.6973 32.2588 29.3328 32.2125 28.9548C32.1745 28.569 31.9571 28.1425 31.5604 27.6752C31.4516 27.5441 31.2997 27.3758 31.1046 27.1703C30.9095 26.9648 30.7494 26.8043 30.6241 26.6888C30.1859 26.2766 29.7752 26.0414 29.3919 25.9834C29.009 25.9093 28.6326 26.0478 28.2627 26.3989C27.9011 26.7422 27.7432 27.1109 27.789 27.5049C27.8271 27.8907 28.0447 28.3092 28.4418 28.7604C28.5506 28.8915 28.7025 29.0598 28.8976 29.2653C29.0927 29.4708 29.2528 29.6313 29.3781 29.7468C29.8159 30.175 30.2264 30.4182 30.6097 30.4763C30.993 30.5344 31.3655 30.3917 31.7271 30.0484Z" />
<path d="M44.5963 22.8976C44.4456 22.9761 44.3167 22.9985 44.2097 22.9647C44.0974 22.921 43.99 22.8619 43.8874 22.7876L37.3946 17.2751C37.3536 17.2453 37.32 17.2053 37.2938 17.155C37.2467 17.0646 37.2376 16.9735 37.2665 16.8818C37.3002 16.7748 37.3674 16.6951 37.4679 16.6427L39.1717 15.7556C39.3024 15.6875 39.4213 15.6704 39.5283 15.7041C39.6353 15.7378 39.7171 15.7846 39.7739 15.8445L43.8881 19.5864L43.1967 14.0623C43.1801 13.9815 43.1887 13.8875 43.2225 13.7805C43.2562 13.6735 43.3384 13.586 43.4691 13.518L45.1729 12.6308C45.2634 12.5837 45.3621 12.577 45.4692 12.6107C45.5709 12.6344 45.6454 12.6914 45.6925 12.7819C45.7186 12.8322 45.7321 12.8826 45.733 12.9333L46.5261 21.4136C46.5383 21.535 46.525 21.6569 46.4865 21.7792C46.4528 21.8862 46.3555 21.9816 46.1947 22.0653L44.5963 22.8976Z" />
<path d="M59.9287 17.3841C58.6183 17.6508 57.502 17.5079 56.58 16.9553C55.6579 16.4027 55.0379 15.4302 54.7198 14.0376C54.704 13.9599 54.6836 13.86 54.6588 13.7378C54.6339 13.6156 54.6147 13.5212 54.6012 13.4546C54.4559 12.5705 54.4977 11.7813 54.7266 11.087C54.9642 10.3794 55.3668 9.80019 55.9343 9.3493C56.5106 8.88505 57.2264 8.56592 58.0815 8.3919C59.0588 8.19303 59.9035 8.22353 60.6157 8.48341C61.3389 8.74103 61.9293 9.17025 62.387 9.77105C62.8447 10.3719 63.1605 11.0998 63.3345 11.955L63.4159 12.3548C63.4407 12.4769 63.4167 12.5859 63.3436 12.6817C63.2817 12.7753 63.1952 12.8334 63.0842 12.856L57.7534 13.9408C57.7557 13.9519 57.7591 13.9685 57.7636 13.9907C57.7681 14.013 57.7726 14.0352 57.7771 14.0574C57.8538 14.3772 57.9692 14.6602 58.1234 14.9064C58.2776 15.1526 58.476 15.332 58.7187 15.4445C58.9613 15.557 59.2326 15.5828 59.5324 15.5218C59.7545 15.4766 59.931 15.406 60.0618 15.31C60.2015 15.2006 60.3122 15.0913 60.3941 14.9821C60.4737 14.8618 60.5345 14.7627 60.5765 14.6848C60.6538 14.5534 60.718 14.4709 60.769 14.4374C60.8289 14.3905 60.9254 14.3535 61.0587 14.3264L63.1244 13.9061C63.2354 13.8835 63.331 13.8987 63.4112 13.9518C63.5003 13.9915 63.5505 14.068 63.562 14.1813C63.5894 14.3724 63.5413 14.6192 63.4178 14.9219C63.2944 15.2246 63.0876 15.5443 62.7976 15.8809C62.5164 16.2041 62.1373 16.501 61.6604 16.7715C61.1834 17.0421 60.6062 17.2463 59.9287 17.3841ZM57.4178 12.2916L60.2331 11.7187L60.2263 11.6854C60.154 11.33 60.0352 11.0303 59.8699 10.7864C59.7157 10.5402 59.5129 10.3675 59.2614 10.2683C59.021 10.1669 58.7509 10.1467 58.451 10.2077C58.1512 10.2687 57.9104 10.3929 57.7288 10.5802C57.5583 10.7652 57.4446 11.0023 57.3878 11.2915C57.331 11.5806 57.3387 11.9029 57.411 12.2583L57.4178 12.2916Z" />
<path d="M84.3158 17.5499C83.6064 17.3991 83.0147 17.1574 82.5408 16.8249C82.0804 16.4837 81.7622 16.0453 81.5864 15.5097C81.413 14.963 81.4076 14.3072 81.5702 13.5423L82.249 10.3497L80.952 10.0739C80.83 10.048 80.733 9.98681 80.6608 9.89036C80.5997 9.79626 80.5821 9.68824 80.608 9.5663L80.8944 8.21941C80.9203 8.09747 80.9803 8.00594 81.0744 7.94484C81.1796 7.8861 81.2931 7.86969 81.4151 7.89561L82.7121 8.17136L83.2954 5.42768C83.3213 5.30574 83.3813 5.21422 83.4754 5.15312C83.5806 5.09437 83.6886 5.07678 83.7995 5.10035L85.7284 5.51044C85.8503 5.53636 85.9418 5.59637 86.0029 5.69047C86.064 5.78457 86.0816 5.89259 86.0557 6.01453L85.4724 8.75821L87.5509 9.20011C87.6729 9.22603 87.7644 9.28604 87.8255 9.38014C87.8866 9.47424 87.9042 9.58226 87.8783 9.7042L87.5919 11.0511C87.566 11.173 87.506 11.2646 87.4119 11.3257C87.3178 11.3868 87.2098 11.4043 87.0878 11.3784L85.0093 10.9365L84.38 13.8964C84.2999 14.2733 84.3083 14.5879 84.4053 14.8403C84.5023 15.0926 84.7226 15.2553 85.0662 15.3284L86.3466 15.6006C86.4685 15.6265 86.5601 15.6865 86.6212 15.7806C86.6823 15.8747 86.6999 15.9827 86.6739 16.1047L86.3664 17.5513C86.3404 17.6733 86.2804 17.7648 86.1863 17.8259C86.0922 17.887 85.9842 17.9046 85.8623 17.8787L84.3158 17.5499Z" />
<path d="M92.3574 19.9761C92.2463 19.9195 92.1735 19.8378 92.1388 19.7311C92.1041 19.6244 92.1151 19.5155 92.1717 19.4044L97.2665 9.40785C97.3231 9.29677 97.4047 9.22391 97.5114 9.18925C97.6181 9.15459 97.727 9.16556 97.8381 9.22217L99.7768 10.2102C99.8879 10.2668 99.9608 10.3485 99.9954 10.4552C100.03 10.5619 100.019 10.6708 99.9625 10.7819L98.2411 14.1595C98.6733 13.9854 99.1326 13.9079 99.619 13.9268C100.121 13.9408 100.634 14.0816 101.159 14.3492C101.745 14.6477 102.198 15.044 102.519 15.5381C102.849 16.0374 103.015 16.6114 103.015 17.2602C103.02 17.8989 102.835 18.5868 102.459 19.3239L100.305 23.5497C100.249 23.6608 100.167 23.7337 100.06 23.7683C99.9536 23.803 99.8448 23.792 99.7337 23.7354L97.7798 22.7396C97.6788 22.6881 97.606 22.6065 97.5612 22.4946C97.5265 22.3879 97.5375 22.279 97.5941 22.168L99.7015 18.033C99.9434 17.5584 100.013 17.1357 99.9089 16.7649C99.8206 16.3892 99.5543 16.0881 99.11 15.8616C98.696 15.6506 98.2958 15.6121 97.9096 15.746C97.5285 15.8698 97.217 16.1689 96.9751 16.6435L94.8678 20.7785C94.8112 20.8896 94.7295 20.9624 94.6228 20.9971C94.5161 21.0317 94.4072 21.0208 94.2961 20.9642L92.3574 19.9761Z" />
<path d="M108.969 31.0488C107.999 30.1281 107.477 29.1316 107.401 28.0594C107.324 26.9871 107.766 25.9215 108.724 24.8624C108.779 24.8048 108.849 24.7309 108.935 24.6405C109.021 24.55 109.087 24.4802 109.134 24.4309C109.775 23.8049 110.445 23.3866 111.145 23.176C111.861 22.965 112.567 22.9626 113.262 23.169C113.972 23.375 114.644 23.7784 115.277 24.3792C116.001 25.0658 116.46 25.7753 116.655 26.5078C116.859 27.248 116.846 27.9779 116.616 28.6973C116.386 29.4168 115.971 30.093 115.37 30.7259L115.089 31.0218C115.004 31.1122 114.9 31.155 114.78 31.1501C114.668 31.153 114.571 31.1155 114.489 31.0374L110.543 27.2922C110.535 27.3004 110.524 27.3127 110.508 27.3292C110.492 27.3456 110.477 27.362 110.461 27.3785C110.243 27.6246 110.077 27.8815 109.964 28.149C109.851 28.4165 109.818 28.6819 109.865 28.9452C109.912 29.2085 110.046 29.4455 110.268 29.6562C110.432 29.8123 110.591 29.9163 110.745 29.9685C110.915 30.0202 111.068 30.0482 111.204 30.0527C111.348 30.049 111.464 30.0419 111.552 30.0316C111.704 30.0197 111.809 30.025 111.865 30.0475C111.938 30.0697 112.024 30.1276 112.122 30.2212L113.651 31.6725C113.733 31.7505 113.776 31.8376 113.778 31.9337C113.797 32.0295 113.763 32.1145 113.677 32.1889C113.536 32.3208 113.306 32.423 112.987 32.4954C112.669 32.5679 112.288 32.5818 111.846 32.5372C111.42 32.4922 110.959 32.3518 110.464 32.1162C109.969 31.8806 109.471 31.5248 108.969 31.0488ZM111.702 26.0715L113.785 28.0495L113.809 28.0249C114.059 27.7618 114.236 27.4927 114.341 27.2174C114.454 26.9499 114.479 26.6847 114.416 26.4218C114.362 26.1666 114.223 25.9338 114.001 25.7231C113.78 25.5124 113.54 25.3864 113.282 25.345C113.033 25.3114 112.773 25.3542 112.504 25.4735C112.234 25.5927 111.975 25.7839 111.725 26.0469L111.702 26.0715Z" />
<path d="M118.273 48.4532C118.227 48.3372 118.227 48.2278 118.271 48.1249C118.316 48.022 118.397 47.9478 118.513 47.9021L128.953 43.7925C129.069 43.7469 129.178 43.7464 129.281 43.7912C129.384 43.8359 129.458 43.9163 129.504 44.0323L130.208 45.8198C130.249 45.9253 130.248 46.0295 130.203 46.1323C130.162 46.2458 130.084 46.3253 129.968 46.371L129.383 46.6013C129.805 46.7152 130.2 46.931 130.569 47.2487C130.948 47.5623 131.254 48.0144 131.487 48.6049C131.694 49.1322 131.792 49.6294 131.781 50.0966C131.781 50.5596 131.679 50.9957 131.474 51.405C131.27 51.8143 130.972 52.1872 130.581 52.5239C130.194 52.8711 129.709 53.1715 129.127 53.4251C128.92 53.5187 128.727 53.6007 128.548 53.6713C128.369 53.7419 128.172 53.8134 127.957 53.8859C127.379 54.0889 126.832 54.2006 126.316 54.2209C125.801 54.2412 125.328 54.1713 124.9 54.0111C124.472 53.8509 124.087 53.6004 123.746 53.2597C123.419 52.9254 123.152 52.4946 122.945 51.9673C122.741 51.4505 122.652 50.9618 122.678 50.501C122.718 50.0467 122.857 49.6265 123.095 49.2406L119.584 50.6229C119.468 50.6686 119.358 50.669 119.255 50.6242C119.152 50.5795 119.078 50.4991 119.032 50.3831L118.273 48.4532ZM124.728 50.2787C124.869 50.6373 125.053 50.8877 125.279 51.0299C125.506 51.1722 125.762 51.2357 126.049 51.2204C126.339 51.2157 126.641 51.1637 126.956 51.0644C127.291 50.9568 127.618 50.8281 127.936 50.6784C128.234 50.5369 128.491 50.3689 128.706 50.1744C128.926 49.9904 129.07 49.7691 129.139 49.5106C129.208 49.2522 129.172 48.9436 129.031 48.5851C128.894 48.2371 128.705 47.9887 128.463 47.8401C128.233 47.6873 127.977 47.6112 127.698 47.6117C127.418 47.6123 127.133 47.6633 126.844 47.7649C126.64 47.8332 126.443 47.9047 126.253 47.9794C126.063 48.0542 125.865 48.1383 125.658 48.2319C125.398 48.3462 125.173 48.5017 124.983 48.6985C124.803 48.8912 124.681 49.122 124.616 49.391C124.562 49.6559 124.599 49.9518 124.728 50.2787Z" />
<path d="M125.889 62.0342C125.874 61.9105 125.901 61.8044 125.97 61.716C126.039 61.6276 126.135 61.5758 126.259 61.5607L134.19 60.5893C134.302 60.5755 134.403 60.6032 134.491 60.6723C134.591 60.74 134.648 60.8358 134.663 60.9595L134.901 62.9C134.916 63.0237 134.884 63.1305 134.803 63.2203C134.734 63.3087 134.643 63.3597 134.531 63.3735L133.856 63.4562C134.242 63.7172 134.556 64.0441 134.798 64.4369C135.042 64.841 135.196 65.3073 135.261 65.8361L135.351 66.5785C135.365 66.691 135.338 66.7914 135.269 66.8798C135.201 66.9795 135.105 67.0369 134.981 67.052L133.243 67.2649C133.131 67.2787 133.024 67.2461 132.923 67.1671C132.835 67.098 132.784 67.0072 132.77 66.8947L132.569 65.2579C132.513 64.7967 132.339 64.4526 132.049 64.2256C131.771 64.0084 131.402 63.928 130.94 63.9845L126.621 64.5136C126.497 64.5288 126.39 64.4962 126.3 64.4158C126.212 64.3467 126.16 64.2503 126.145 64.1266L125.889 62.0342Z" />
<path d="M126.022 78.1076C126.197 76.7818 126.696 75.7731 127.519 75.0815C128.342 74.3899 129.463 74.1207 130.884 74.2739C130.962 74.2843 131.063 74.2976 131.187 74.3139C131.311 74.3303 131.406 74.3429 131.474 74.3518C132.357 74.5026 133.089 74.7994 133.671 75.242C134.262 75.6973 134.679 76.2667 134.92 76.9502C135.171 77.6464 135.24 78.427 135.125 79.2922C134.995 80.2809 134.691 81.0696 134.213 81.6581C133.734 82.2579 133.135 82.6762 132.418 82.913C131.701 83.1499 130.91 83.2112 130.045 83.097L129.64 83.0436C129.517 83.0273 129.421 82.969 129.355 82.8687C129.286 82.7797 129.26 82.679 129.275 82.5666L129.986 77.1734C129.975 77.1719 129.958 77.1697 129.936 77.1667C129.913 77.1638 129.891 77.1608 129.868 77.1578C129.541 77.1261 129.236 77.1429 128.953 77.2085C128.67 77.274 128.436 77.4031 128.25 77.5958C128.065 77.7885 127.952 78.0366 127.912 78.3399C127.882 78.5647 127.892 78.7545 127.94 78.9095C127.998 79.0771 128.065 79.2175 128.141 79.3305C128.229 79.4449 128.303 79.5347 128.363 79.5998C128.462 79.7158 128.519 79.8033 128.534 79.8625C128.559 79.9343 128.562 80.0377 128.545 80.1725L128.269 82.2624C128.254 82.3747 128.208 82.4602 128.132 82.5187C128.065 82.5899 127.977 82.6125 127.866 82.5864C127.676 82.55 127.459 82.4241 127.213 82.2087C126.967 81.9933 126.732 81.6937 126.508 81.3098C126.294 80.9386 126.137 80.4834 126.037 79.9443C125.937 79.4052 125.932 78.793 126.022 78.1076ZM131.655 77.3937L131.279 80.242L131.313 80.2464C131.672 80.2939 131.994 80.2792 132.279 80.2025C132.562 80.1369 132.791 80.0015 132.967 79.796C133.141 79.6018 133.248 79.353 133.288 79.0497C133.328 78.7463 133.289 78.4782 133.172 78.2455C133.052 78.0239 132.865 77.8392 132.61 77.6913C132.355 77.5433 132.048 77.4456 131.689 77.3981L131.655 77.3937Z" />
<path d="M122.557 92.1336C122.625 91.9777 122.711 91.8793 122.815 91.8382C122.93 91.8016 123.051 91.78 123.177 91.7733L131.692 91.9756C131.743 91.9729 131.794 91.9828 131.846 92.0055C131.94 92.0462 132.004 92.1113 132.039 92.2008C132.08 92.3052 132.078 92.4093 132.033 92.5132L131.266 94.2746C131.207 94.4097 131.126 94.4978 131.021 94.5389C130.917 94.5799 130.824 94.595 130.742 94.5841L125.19 94.2625L129.202 98.1225C129.266 98.1749 129.318 98.2533 129.359 98.3577C129.4 98.4621 129.391 98.5819 129.332 98.717L128.566 100.478C128.525 100.572 128.452 100.639 128.348 100.68C128.254 100.726 128.16 100.728 128.067 100.688C128.015 100.665 127.972 100.634 127.94 100.595L121.99 94.501C121.904 94.4142 121.838 94.3112 121.791 94.1919C121.75 94.0875 121.765 93.9521 121.838 93.7859L122.557 92.1336Z" />
<path d="M116.391 103.351C116.465 103.251 116.558 103.193 116.669 103.176C116.78 103.159 116.885 103.188 116.986 103.262L123.406 108.018C123.506 108.092 123.565 108.185 123.581 108.296C123.598 108.407 123.569 108.512 123.495 108.613L122.301 110.225C122.233 110.316 122.144 110.369 122.033 110.386C121.915 110.412 121.807 110.387 121.706 110.313L115.286 105.558C115.186 105.483 115.131 105.386 115.121 105.266C115.104 105.155 115.13 105.054 115.197 104.963L116.391 103.351ZM124.529 109.358C124.604 109.258 124.696 109.199 124.807 109.183C124.918 109.166 125.024 109.195 125.124 109.269L126.34 110.17C126.44 110.244 126.498 110.336 126.515 110.447C126.54 110.565 126.516 110.674 126.442 110.774L125.238 112.4C125.164 112.5 125.067 112.555 124.947 112.565C124.829 112.591 124.72 112.566 124.62 112.492L123.404 111.592C123.304 111.517 123.249 111.42 123.239 111.3C123.222 111.189 123.251 111.084 123.325 110.983L124.529 109.358Z" />
<path d="M107.417 112.964C108.435 112.096 109.481 111.681 110.555 111.718C111.629 111.755 112.643 112.305 113.595 113.369C113.647 113.43 113.713 113.507 113.794 113.602C113.875 113.697 113.937 113.77 113.982 113.822C114.537 114.525 114.882 115.236 115.019 115.954C115.153 116.688 115.082 117.39 114.804 118.059C114.524 118.745 114.053 119.371 113.389 119.937C112.63 120.584 111.876 120.967 111.127 121.084C110.37 121.209 109.645 121.12 108.954 120.816C108.263 120.512 107.634 120.028 107.067 119.364L106.802 119.054C106.721 118.959 106.69 118.852 106.707 118.732C106.716 118.621 106.764 118.528 106.85 118.454L110.988 114.923C110.981 114.915 110.97 114.902 110.955 114.885C110.94 114.867 110.926 114.85 110.911 114.833C110.689 114.59 110.451 114.399 110.197 114.258C109.943 114.117 109.682 114.056 109.415 114.075C109.149 114.094 108.899 114.203 108.666 114.402C108.494 114.549 108.373 114.696 108.306 114.844C108.236 115.007 108.192 115.156 108.174 115.291C108.162 115.435 108.157 115.551 108.158 115.64C108.154 115.792 108.138 115.895 108.109 115.949C108.08 116.019 108.013 116.099 107.91 116.187L106.306 117.555C106.22 117.629 106.129 117.662 106.033 117.654C105.936 117.662 105.855 117.62 105.79 117.526C105.673 117.372 105.596 117.133 105.557 116.808C105.519 116.484 105.545 116.104 105.636 115.669C105.725 115.25 105.913 114.807 106.199 114.339C106.485 113.871 106.891 113.413 107.417 112.964ZM112.081 116.204L109.895 118.069L109.917 118.094C110.153 118.37 110.402 118.575 110.664 118.708C110.918 118.849 111.18 118.902 111.448 118.867C111.707 118.839 111.953 118.726 112.186 118.527C112.419 118.329 112.569 118.103 112.637 117.852C112.697 117.607 112.682 117.345 112.591 117.064C112.501 116.784 112.338 116.506 112.103 116.23L112.081 116.204Z" />
<path d="M96.1809 120.855C96.338 120.79 96.4684 120.779 96.572 120.822C96.6757 120.865 96.7722 120.935 96.8618 121.033L102.132 127.371C102.175 127.415 102.207 127.463 102.228 127.515C102.267 127.61 102.263 127.703 102.216 127.797C102.173 127.9 102.104 127.972 102.01 128.01L100.392 128.68C100.256 128.736 100.136 128.743 100.032 128.7C99.9181 128.661 99.8354 128.609 99.7841 128.545L96.6064 124.597L97.0441 129.659C97.0535 129.741 97.0367 129.834 96.9937 129.938C96.9446 130.056 96.8467 130.146 96.7001 130.206L95.6632 130.635C95.5166 130.696 95.3893 130.699 95.2814 130.646C95.1672 130.607 95.0846 130.556 95.0333 130.491L91.7679 126.598L92.3063 131.637C92.3157 131.719 92.2989 131.812 92.2559 131.915C92.2024 132.023 92.1076 132.106 91.9715 132.162L90.3534 132.831C90.2591 132.87 90.1654 132.866 90.0722 132.819C89.9729 132.786 89.9038 132.723 89.8648 132.628C89.8432 132.576 89.8268 132.521 89.8156 132.465L89.0698 124.256C89.0536 124.127 89.0722 124.009 89.1257 123.901C89.1686 123.798 89.2687 123.714 89.4258 123.649L90.8397 123.064C90.9863 123.003 91.1166 122.992 91.2307 123.031C91.3448 123.07 91.4414 123.14 91.5205 123.242L94.7459 126.949L94.4111 122.047C94.3948 121.919 94.4135 121.801 94.4669 121.693C94.5204 121.585 94.6204 121.5 94.7671 121.44L96.1809 120.855Z" />
<path d="M78.1804 129.694C78.552 129.652 78.912 129.708 79.2602 129.862C79.6085 130.017 79.8962 130.241 80.1234 130.534C80.3406 130.841 80.4708 131.185 80.5142 131.568C80.5589 131.962 80.509 132.327 80.3645 132.663C80.2088 133 79.9785 133.283 79.6736 133.511C79.3687 133.739 79.0305 133.875 78.6589 133.917C78.2647 133.961 77.8991 133.906 77.5621 133.75C77.2139 133.596 76.9318 133.371 76.7159 133.076C76.4887 132.783 76.3528 132.439 76.3081 132.045C76.2648 131.662 76.3203 131.296 76.4747 130.948C76.6192 130.612 76.8438 130.33 77.1487 130.102C77.4424 129.874 77.7862 129.738 78.1804 129.694Z" />
</svg>
