<svg width="110" height="108" viewBox="0 0 110 108" fill="none" xmlns="http://www.w3.org/2000/svg">
<g clip-path="url(#clip0_206_221)">
<path d="M101.255 83.2316C95.2744 83.0829 90.6394 83.6794 86.752 85.3195C85.6305 85.7665 83.8361 85.7669 83.6866 87.1838C84.2847 87.7803 84.3595 88.7497 84.8828 89.5696C85.7809 91.0605 87.3497 93.0739 88.7702 94.1183C90.3399 95.311 91.9104 96.5037 93.5544 97.5476C96.4702 99.3373 99.7599 100.381 102.601 102.171C104.246 103.214 105.889 104.557 107.534 105.675C108.357 106.271 108.88 107.241 109.927 107.613V107.39C109.403 106.718 109.253 105.749 108.73 105.004C107.984 104.258 107.235 103.587 106.488 102.841C104.32 99.9339 101.629 97.3985 98.7132 95.311C96.3211 93.6704 91.0875 91.4338 90.116 88.6747C90.116 88.6747 90.0408 88.6006 89.9665 88.526C91.6109 88.3769 93.5544 87.7803 95.1249 87.3329C97.6665 86.6613 99.9838 86.8109 102.601 86.1398C103.796 85.8415 104.993 85.4687 106.188 85.0958V84.4251C104.844 83.0829 103.872 81.2936 102.451 80.0259C98.6384 76.7444 94.4515 73.5388 90.116 70.8547C87.7983 69.3633 84.8076 68.3939 82.3408 67.1267C81.4445 66.6788 79.9487 66.4556 79.4258 65.7099C78.0796 64.0698 77.3319 61.9077 76.3604 59.9689C74.1931 55.8675 72.0992 51.3197 70.2301 46.9955C68.8851 44.0873 68.0627 41.1791 66.4179 38.4954C58.7179 25.8199 50.345 18.1401 37.487 10.609C34.7207 9.04345 31.4314 8.37232 27.9179 7.55249C26.0496 7.47749 24.18 7.32878 22.3113 7.25378C21.1151 6.7318 19.9188 5.3154 18.8721 4.64428C14.6117 1.95977 3.62162 -3.85536 0.481893 3.82444C-1.53678 8.6706 3.47252 13.4422 5.19127 15.9034C6.46314 17.6181 8.10713 19.5565 9.00432 21.4953C9.52767 22.7621 9.67678 24.1052 10.2001 25.447C11.3968 28.7268 12.5174 32.3811 14.0879 35.4385C14.9104 37.004 15.8071 38.6441 16.8538 40.061C17.452 40.8808 18.4983 41.2541 18.723 42.5959C17.6767 44.0873 17.6015 46.3244 17.0029 48.1882C14.3118 56.6137 15.359 67.0521 19.1712 73.2405C20.367 75.1039 23.2081 79.2061 27.0207 77.6397C30.3851 76.2979 29.6375 72.0479 30.6086 68.3198C30.8337 67.4241 30.6842 66.8284 31.1324 66.2319V66.3814C32.1791 68.4685 33.2254 70.4823 34.1973 72.5698C36.5151 76.2229 40.5515 80.0259 43.9156 82.5613C45.7104 83.9027 47.1305 86.2143 49.3735 87.0346V86.8105H49.2235C48.7749 86.1394 48.102 85.8415 47.5043 85.3191C46.159 83.9777 44.6632 82.3372 43.6169 80.8458C40.4776 76.6699 37.7109 72.0474 35.244 67.2754C34.0482 64.9646 33.0011 62.4292 32.0295 60.118C31.5805 59.2223 31.5805 57.8809 30.8333 57.4339C29.7118 59.074 28.0674 60.4909 27.245 62.5038C25.8253 65.7099 25.6753 69.6616 25.152 73.7621C24.8529 73.8375 25.002 73.7621 24.8525 73.9121C22.4608 73.3147 21.6384 70.8547 20.7408 68.7668C18.4978 63.4732 18.124 54.9731 20.0683 48.8593C20.5917 47.2933 22.8347 42.3726 21.9375 40.8812C21.4889 39.4644 19.9931 38.6441 19.1712 37.526C18.1996 36.1092 17.1525 34.3204 16.48 32.754C14.6856 28.5785 13.7885 23.9556 11.845 19.7802C10.9478 17.8414 9.37857 15.8288 8.10713 14.0392C6.68701 12.0262 5.11693 10.609 3.99545 8.22319C3.62205 7.40335 3.09826 6.0611 3.69639 5.16626C3.84592 4.56971 4.14455 4.34643 4.7431 4.19729C5.71506 3.37659 8.48139 4.42057 9.45248 4.86799C12.2188 5.98567 14.5361 7.0305 16.8538 8.59603C17.9001 9.34173 19.0216 10.7586 20.367 11.1314H21.937C24.3295 11.653 27.0203 11.2805 29.2632 11.9512C33.2258 13.2185 36.8137 15.0827 40.0286 17.0961C49.822 23.2845 57.895 32.0829 63.3529 42.5959C64.2501 44.3101 64.6235 45.8769 65.4459 47.6658C67.0164 51.3197 68.9599 55.0477 70.5291 58.6266C72.0992 62.1305 73.5941 65.7099 75.8371 68.6181C76.9585 70.1832 81.4436 71.0039 83.4623 71.8241C84.9576 72.4948 87.2753 73.0918 88.6207 73.9117C91.1623 75.4768 93.7039 77.2673 96.0964 78.9815C97.2926 79.8764 101.03 81.7406 101.255 83.2316Z" fill="#00546B"/>
<path d="M25.002 18.4375C23.7314 18.4375 22.8347 18.5875 21.9375 18.8108V18.9599H22.087C22.6856 20.153 23.7314 20.9733 24.4787 22.0168C25.0772 23.2095 25.6002 24.4031 26.1987 25.5962C26.273 25.5212 26.3478 25.447 26.3478 25.447C27.395 24.7009 27.9179 23.5082 27.9179 21.7186C27.4693 21.197 27.3945 20.675 27.0207 20.153C26.5725 19.4069 25.6002 19.0345 25.002 18.4375Z" fill="#00546B"/>
</g>
<defs>
<clipPath id="clip0_206_221">
<rect width="110" height="108" fill="white"/>
</clipPath>
</defs>
</svg>
