<svg width="191" height="54" viewBox="0 0 191 54" fill="none" xmlns="http://www.w3.org/2000/svg">
<g clip-path="url(#clip0_206_209)">
<path d="M175.722 19.2207C175.258 19.2207 174.806 19.3164 174.407 19.5421L161.765 26.8302C160.947 27.301 160.45 28.1895 160.45 29.1351V43.6849C160.45 44.6298 160.947 45.5172 161.765 45.9891L165.066 47.8917C166.671 48.6809 167.262 48.6686 167.992 48.6686C170.367 48.6686 171.723 47.2299 171.723 44.7299V30.3674C171.723 30.1645 171.547 30.0192 171.347 30.0192H169.763C169.561 30.0192 169.388 30.1645 169.388 30.3674V44.7299C169.388 45.8379 168.231 46.9525 166.355 46.0159L162.919 44.0063C162.798 43.9404 162.704 43.8239 162.704 43.6849V29.1347C162.704 28.9969 162.797 28.8565 162.919 28.7865L175.534 21.5256C175.591 21.4923 175.656 21.4748 175.722 21.4748C175.788 21.4748 175.853 21.4923 175.91 21.5256L188.525 28.7869C188.645 28.8591 188.74 28.9928 188.74 29.1355V43.6853C188.74 43.8242 188.67 43.9665 188.552 44.0335L175.91 51.2948C175.802 51.3593 175.652 51.3593 175.534 51.2948L172.286 49.3657C172.237 49.339 172.182 49.325 172.125 49.325C172.069 49.325 172.014 49.339 171.964 49.3657C171.068 49.873 170.899 49.9318 170.059 50.223C169.852 50.2953 169.537 50.4074 170.166 50.7593L174.407 53.2508C174.807 53.4811 175.26 53.6013 175.722 53.5993C176.184 53.6022 176.638 53.482 177.037 53.2511L189.679 45.9894C190.497 45.5146 190.994 44.6301 190.994 43.6853V29.1351C190.994 28.1899 190.497 27.3028 189.679 26.831L177.037 19.5428C176.641 19.3168 176.187 19.2211 175.722 19.2211L175.722 19.2207Z" fill="#83CD29"/>
<path d="M179.104 29.6174C175.504 29.6174 173.36 31.1469 173.36 33.6905C173.36 36.4494 175.488 37.2076 178.943 37.5487C183.076 37.9528 183.398 38.5587 183.398 39.371C183.398 40.7798 182.273 41.3805 179.614 41.3805C176.273 41.3805 175.539 40.5478 175.293 38.8887C175.264 38.7107 175.126 38.5669 174.944 38.5669H173.306C173.105 38.5669 172.931 38.7405 172.931 38.9423C172.931 41.0662 174.088 43.5777 179.614 43.5777C183.614 43.5777 185.922 42.0102 185.922 39.2637C185.922 36.5413 184.058 35.8103 180.177 35.2982C176.257 34.7802 175.883 34.5266 175.883 33.6101C175.883 32.8533 176.2 31.8411 179.104 31.8411C181.698 31.8411 182.657 32.3997 183.049 34.146C183.084 34.3098 183.229 34.4406 183.398 34.4406H185.036C185.137 34.4406 185.234 34.3787 185.304 34.3065C185.373 34.2294 185.421 34.1426 185.412 34.0387C185.158 31.0319 183.149 29.6174 179.104 29.6174Z" fill="#83CD29"/>
<path d="M101.401 0.142629C101.259 0.142723 101.121 0.179559 100.998 0.249512C100.876 0.320744 100.775 0.422461 100.704 0.544643C100.633 0.666825 100.596 0.805256 100.595 0.946298V21.4447C100.595 21.6458 100.502 21.8261 100.327 21.927C100.242 21.9767 100.144 22.0029 100.045 22.0029C99.9463 22.0029 99.849 21.9767 99.7635 21.927L96.4083 19.9979C96.1636 19.8565 95.8858 19.7821 95.6031 19.7821C95.3204 19.7821 95.0426 19.8565 94.7979 19.9979L81.4045 27.7147C80.9039 28.0033 80.5995 28.5578 80.5995 29.135V44.569C80.5995 45.1455 80.9043 45.6736 81.4045 45.9622L94.7979 53.6794C95.0425 53.8211 95.3203 53.8957 95.6031 53.8957C95.8859 53.8957 96.1637 53.8211 96.4083 53.6794L109.802 45.9622C110.047 45.8213 110.25 45.6183 110.392 45.3736C110.533 45.129 110.608 44.8514 110.607 44.569V6.0912C110.607 5.80213 110.53 5.51834 110.383 5.2688C110.237 5.01926 110.027 4.8129 109.775 4.67081L101.803 0.222698C101.678 0.153057 101.54 0.140767 101.401 0.142629ZM15.2428 19.4083C14.9876 19.4184 14.7474 19.4631 14.5183 19.5957L1.12461 27.3128C0.879268 27.4535 0.67557 27.6565 0.534186 27.9012C0.392803 28.1459 0.318766 28.4236 0.319587 28.706L0.346446 49.4193C0.346446 49.7072 0.49529 49.975 0.748959 50.1157C0.870574 50.1887 1.00978 50.2272 1.15166 50.2272C1.29354 50.2272 1.43274 50.1887 1.55436 50.1157L9.49905 45.5607C10.0023 45.2621 10.3309 44.7429 10.3309 44.1672V34.4941C10.3309 33.9168 10.635 33.3873 11.1363 33.1005L14.518 31.1446C14.7625 31.0027 15.0405 30.9286 15.3234 30.9301C15.5994 30.9301 15.8829 30.999 16.1284 31.1446L19.5104 33.1005C19.756 33.2411 19.9599 33.4441 20.1013 33.6889C20.2428 33.9337 20.3168 34.2115 20.3158 34.4941V44.1668C20.3158 44.7425 20.6478 45.2654 21.1477 45.5604L29.0924 50.1157C29.214 50.1887 29.3532 50.2272 29.4951 50.2272C29.637 50.2272 29.7762 50.1887 29.8978 50.1157C30.0202 50.045 30.1218 49.9434 30.1925 49.8211C30.2633 49.6988 30.3005 49.5601 30.3007 49.4189L30.3268 28.706C30.3284 28.4234 30.2547 28.1454 30.1132 27.9006C29.9717 27.6558 29.7676 27.4529 29.5217 27.3128L16.1284 19.5957C15.902 19.4631 15.661 19.4188 15.4039 19.4083H15.2428ZM135.595 19.5957C135.316 19.5957 135.041 19.6664 134.79 19.8102L121.397 27.5273C121.152 27.6682 120.948 27.8712 120.807 28.1158C120.665 28.3605 120.591 28.6381 120.592 28.9205V44.3545C120.592 44.9351 120.919 45.4609 121.423 45.7481L134.71 53.3043C135.2 53.5836 135.799 53.6049 136.293 53.3304L144.345 48.8558C144.601 48.7143 144.774 48.4499 144.775 48.1594C144.776 48.018 144.74 47.8787 144.669 47.7562C144.598 47.6337 144.496 47.5323 144.372 47.4626L130.898 39.7455C130.646 39.6017 130.469 39.3109 130.469 39.0219V34.1991C130.469 33.9105 130.648 33.6461 130.898 33.5023L135.085 31.0906C135.208 31.0199 135.347 30.9826 135.488 30.9826C135.63 30.9826 135.768 31.0199 135.891 31.0906L140.077 33.5023C140.2 33.5727 140.302 33.6741 140.373 33.7964C140.443 33.9187 140.481 34.0575 140.48 34.1988V38.0037C140.48 38.1449 140.517 38.2837 140.588 38.406C140.658 38.5283 140.76 38.6298 140.883 38.7001C141.134 38.845 141.438 38.8454 141.688 38.7001L149.714 34.0386C149.958 33.8972 150.162 33.694 150.303 33.4494C150.444 33.2048 150.519 32.9274 150.519 32.645V28.9209C150.519 28.3455 150.213 27.8163 149.714 27.5273L136.401 19.8102C136.156 19.6688 135.878 19.5946 135.595 19.5957ZM95.5492 31.1178C95.6193 31.1178 95.7014 31.1349 95.7641 31.171L100.354 33.8237C100.479 33.8956 100.569 34.0286 100.569 34.1719V39.4773C100.569 39.6215 100.479 39.7541 100.354 39.8259L95.7641 42.4786C95.7028 42.5136 95.6334 42.532 95.5628 42.532C95.4922 42.532 95.4229 42.5136 95.3616 42.4786L90.772 39.8259C90.647 39.7537 90.5571 39.6215 90.5571 39.4773V34.1719C90.5571 34.0282 90.6474 33.8964 90.772 33.8237L95.3616 31.1714C95.418 31.1364 95.4831 31.1179 95.5496 31.1181L95.5492 31.1178Z" fill="#404137"/>
<path d="M55.4764 19.5151C55.1974 19.5151 54.9213 19.5859 54.6714 19.7297L41.2781 27.42C40.7771 27.7079 40.4727 28.2635 40.4727 28.84V44.274C40.4727 44.8512 40.7774 45.3785 41.2781 45.6675L54.6714 53.3843C54.916 53.5262 55.1938 53.6009 55.4766 53.6009C55.7595 53.6009 56.0373 53.5262 56.2818 53.3843L69.6752 45.6675C69.9204 45.5266 70.1239 45.3235 70.2653 45.0788C70.4067 44.8341 70.4808 44.5564 70.4802 44.274V28.84C70.4802 28.2628 70.1758 27.7079 69.6752 27.42L56.2818 19.7297C56.037 19.5885 55.7592 19.5145 55.4764 19.5151ZM135.568 33.2881C135.515 33.2881 135.456 33.2881 135.408 33.3149L132.831 34.8154C132.783 34.842 132.743 34.8808 132.714 34.9279C132.686 34.975 132.671 35.0286 132.67 35.0835V38.0308C132.67 38.1418 132.734 38.2435 132.831 38.2989L135.408 39.7726C135.504 39.8285 135.607 39.8285 135.703 39.7726L138.279 38.2986C138.327 38.2718 138.367 38.233 138.395 38.186C138.424 38.1391 138.439 38.0856 138.44 38.0308V35.0832C138.439 35.0284 138.424 34.9749 138.395 34.9279C138.367 34.881 138.327 34.8422 138.279 34.8154L135.703 33.3146C135.655 33.2866 135.622 33.2881 135.568 33.2881Z" fill="#83CD29"/>
</g>
<defs>
<clipPath id="clip0_206_209">
<rect width="191" height="54" fill="white"/>
</clipPath>
</defs>
</svg>
