<svg width="116" height="117" viewBox="0 0 116 117" fill="none" xmlns="http://www.w3.org/2000/svg">
<path d="M54.272 6.3627C77.2382 4.76014 92.466 16.0701 101.173 29.8501C105.539 36.7593 109.822 47.2531 109.842 58.035C109.863 69.7498 106.092 79.8947 101.173 87.3383C96.1173 94.989 89.5784 101.308 81.3901 105.457C67.7028 112.393 48.5742 112.583 36.045 105.905C22.0915 98.4675 11.3632 87.8522 7.37093 69.4431C5.77327 62.0761 5.58963 52.5571 7.81548 44.39C8.33781 42.4741 9.28701 40.4578 10.0384 38.5741C13.6491 29.5214 19.795 21.6495 27.3762 16.2049C30.4225 14.0173 34.1181 11.8414 37.3788 10.389C41.4358 8.58192 48.2665 6.78165 54.272 6.3627Z" fill="white"/>
<path d="M97.836 59.3376C97.836 81.1808 80.2402 98.8869 58.5351 98.8869C36.83 98.8869 19.2346 81.1808 19.2346 59.3376C19.2346 37.495 36.83 19.7875 58.5351 19.7875C80.2401 19.7875 97.836 37.495 97.836 59.3376Z" fill="black"/>
<path d="M54.272 6.3627C77.2382 4.76014 92.466 16.0701 101.173 29.8501C105.539 36.7593 109.822 47.2531 109.842 58.035C109.863 69.7498 106.092 79.8947 101.173 87.3383C96.1173 94.989 89.5784 101.308 81.3901 105.457C67.7028 112.393 48.5742 112.583 36.045 105.905C22.0915 98.4675 11.3632 87.8522 7.37093 69.4431C5.77327 62.0761 5.58963 52.5571 7.81548 44.39C8.33781 42.4741 9.28701 40.4578 10.0384 38.5741C13.6491 29.5214 19.795 21.6495 27.3762 16.2049C30.4225 14.0173 34.1181 11.8414 37.3788 10.389C41.4358 8.58192 48.2665 6.78165 54.272 6.3627ZM46.4921 10.1655C37.9617 12.3912 31.7071 16.3786 26.2648 20.6789C18.417 26.88 13.414 35.5335 10.4829 45.9558C7.22194 57.551 9.31664 71.5825 13.8172 80.4039C18.4842 89.5521 24.7506 96.6533 33.6 101.655C42.2094 106.52 54.3184 109.644 66.9421 107.247C78.1579 105.117 86.6762 100.2 93.6157 92.9305C102.9 83.2048 110.362 65.2911 105.397 46.4031C104.069 41.355 102.334 36.0937 99.6172 31.6395C98.1495 29.2333 95.9957 26.866 93.8379 24.4815C85.6944 15.4817 72.5325 7.72642 55.6057 8.82321C52.3843 9.0319 49.5534 9.36664 46.4921 10.1655Z" fill="black"/>
<path d="M60.9114 106.77L106.325 61.0695" stroke="white" stroke-width="1.78766"/>
<path d="M56.9414 103.151L102.553 57.2506" stroke="white" stroke-width="1.78766"/>
<path d="M52.9712 99.5323L98.7815 53.432" stroke="white" stroke-width="1.78766"/>
<path d="M49.001 95.9129L95.0095 49.6134" stroke="white" stroke-width="1.78766"/>
<path d="M45.0308 92.2937L91.2375 45.7946" stroke="white" stroke-width="1.78766"/>
<path d="M41.0605 88.6754L87.4653 41.976" stroke="white" stroke-width="1.78766"/>
<path d="M37.0903 85.0553L83.6934 38.1572" stroke="white" stroke-width="1.78766"/>
<path d="M33.1201 81.4361L79.9212 34.3384" stroke="white" stroke-width="1.78766"/>
<path d="M29.1499 77.8169L76.1484 30.5198" stroke="white" stroke-width="1.78766"/>
<path d="M25.1797 74.1976L72.3772 26.7012" stroke="white" stroke-width="1.78766"/>
<path d="M21.2095 70.5785L68.6052 22.8824" stroke="white" stroke-width="1.78766"/>
<path d="M17.2393 66.9594L64.8333 19.0637" stroke="white" stroke-width="1.78766"/>
<path d="M13.269 63.3399L61.0613 15.245" stroke="white" stroke-width="1.78766"/>
<path d="M9.29883 59.7208L57.2893 11.4264" stroke="white" stroke-width="1.78766"/>
<path d="M9.28345 60.1827L55.6049 106.8" stroke="white" stroke-width="1.78766"/>
<path d="M13.0398 56.3484L59.4513 103.057" stroke="white" stroke-width="1.78766"/>
<path d="M16.7964 52.514L63.298 99.3127" stroke="white" stroke-width="1.78766"/>
<path d="M20.5527 48.6797L67.1446 95.5692" stroke="white" stroke-width="1.78766"/>
<path d="M24.3091 44.8455L70.991 91.8254" stroke="white" stroke-width="1.78766"/>
<path d="M28.0657 41.0111L74.838 88.0818" stroke="white" stroke-width="1.78766"/>
<path d="M31.822 37.1768L78.6845 84.3381" stroke="white" stroke-width="1.78766"/>
<path d="M35.5784 33.3424L82.5311 80.5942" stroke="white" stroke-width="1.78766"/>
<path d="M39.3347 29.5081L86.3777 76.8505" stroke="white" stroke-width="1.78766"/>
<path d="M43.0913 25.6737L90.2242 73.1065" stroke="white" stroke-width="1.78766"/>
<path d="M46.8477 21.8394L94.0708 69.3631" stroke="white" stroke-width="1.78766"/>
<path d="M50.604 18.005L97.9174 65.6193" stroke="white" stroke-width="1.78766"/>
<path d="M54.3604 14.1709L101.764 61.8758" stroke="white" stroke-width="1.78766"/>
<path d="M58.1172 10.3365L105.611 58.1319" stroke="white" stroke-width="1.78766"/>
<path d="M91.1706 24.7052C87.0832 20.5919 82.0581 16.8854 76.0555 14.6392C69.8336 12.3108 62.7954 10.3482 54.4944 11.0601C41.2713 12.1943 31.9872 18.1647 24.9311 25.1526C19.9888 30.0469 16.2711 36.0445 13.8171 43.0477C10.214 53.3307 10.4326 65.468 14.4839 75.9301C17.9396 84.8543 23.5957 92.0522 31.5995 97.6281C39.1236 102.87 49.9227 106.936 62.0517 105.905C76.8246 104.649 87.6336 97.0219 94.7268 88.2332C96.5417 85.9849 98.3462 83.4435 99.3945 80.4041C100.422 78.2142 100.924 76.7255 101.395 75.9303C103.365 71.4877 104.409 66.8003 104.729 61.6143C105.714 45.6632 99.6156 33.204 91.1706 24.7052ZM86.8168 73.3031C86.7886 73.3638 86.7633 73.4203 86.7338 73.4829C86.001 75.5933 84.7385 77.358 83.4697 78.9194C78.509 85.0222 70.9505 90.3184 60.6196 91.1904C52.1374 91.9059 44.5855 89.0831 39.3239 85.4432C34.7516 82.2801 31.276 78.3647 28.8388 73.6591C28.6902 73.376 27.2748 70.0943 27.2706 69.95C25.3398 63.9231 25.1723 54.232 27.154 48.4165C28.4765 44.5351 30.6807 40.3355 33.6001 37.0083C37.6308 32.4142 41.6644 29.4704 48.0483 27.3896C50.9632 26.4394 53.5726 25.4723 57.1617 25.3765C65.914 25.142 74.8265 29.0966 79.6119 33.4292C84.0095 37.4107 89.0215 45.1664 90.2815 52.4428C91.5782 59.932 90.1944 67.2442 86.8168 73.3031Z" fill="black"/>
<path d="M71.6039 80.487C69.4488 80.487 67.5574 79.1136 66.8974 77.0692L64.4969 69.7088H52.4885L50.2581 77.0021C49.5849 79.0862 47.6792 80.4813 45.513 80.4813C44.9929 80.4813 44.4763 80.3985 43.9775 80.2356C41.3882 79.4534 39.9182 76.6487 40.7115 73.9872L50.8473 41.6773C51.5055 39.622 53.443 38.1884 55.5596 38.1884H60.9492C63.0777 38.1884 65.0151 39.5976 65.6604 41.6154L76.32 73.9132C77.1723 76.5539 75.7609 79.3885 73.1754 80.2355C72.6642 80.4025 72.1356 80.487 71.6039 80.487Z" fill="white" stroke="black" stroke-width="5.36298"/>
<path d="M31.7981 27.8912L31.7854 27.874C30.5214 26.1307 30.8923 23.692 32.7539 22.3248C34.6154 20.9578 37.0067 21.3415 38.2707 23.0846L38.2833 23.1018C39.5473 24.8451 39.1764 27.284 37.3149 28.651C35.4534 30.018 33.0621 29.6345 31.7981 27.8912ZM36.5895 24.3724L36.5768 24.3552C35.9417 23.4793 34.7592 23.178 33.8372 23.8552C32.9236 24.526 32.8526 25.7212 33.4877 26.5972L33.5004 26.6145C34.1357 27.4904 35.318 27.7917 36.2316 27.1208C37.1537 26.4436 37.2248 25.2485 36.5895 24.3724Z" fill="white"/>
<path d="M43.9845 16.4653L45.8841 15.8519L51.2095 22.0819L49.0964 22.7641L48.1709 21.6536L45.428 22.5392L45.3275 23.9812L43.2551 24.6503L43.9845 16.4653ZM47.1098 20.2935L45.6688 18.5149L45.5148 20.8085L47.1098 20.2935Z" fill="white"/>
<path d="M54.6307 18.3395L54.6473 14.1199L56.7491 14.1282L56.7326 18.305C56.7283 19.3894 57.2704 19.9069 58.1027 19.9103C58.9349 19.9137 59.481 19.422 59.485 18.3698L59.5018 14.1396L61.6036 14.1479L61.5871 18.3139C61.5776 20.7404 60.1972 21.798 58.0739 21.7894C55.9508 21.7807 54.6215 20.6909 54.6307 18.3395Z" fill="white"/>
<path d="M69.1944 17.6022L67.0518 16.9441L67.5812 15.1984L73.8462 17.1226L73.3168 18.8683L71.1741 18.2103L69.5236 23.6526L67.5441 23.0447L69.1944 17.6022Z" fill="white"/>
<path d="M79.4423 19.5585L81.1654 20.7125L79.6169 23.0542L81.8286 24.5355L83.3772 22.1935L85.1003 23.3475L80.9627 29.6045L79.2394 28.4505L80.8118 26.0728L78.6 24.5916L77.0278 26.9693L75.3047 25.8153L79.4423 19.5585Z" fill="white"/>
<path d="M85.5291 87.9577L85.5423 87.9746C86.8718 89.668 86.5935 92.1196 84.7852 93.5572C82.9769 94.9949 80.5726 94.7034 79.2431 93.01L79.23 92.9931C77.9005 91.2995 78.1789 88.8481 79.987 87.4104C81.7954 85.973 84.1997 86.2643 85.5291 87.9577ZM80.8742 91.6585L80.8874 91.6754C81.5554 92.5264 82.7486 92.7819 83.6444 92.0697C84.5318 91.3642 84.5576 90.1671 83.8894 89.3162L83.8762 89.2993C83.2084 88.4483 82.015 88.1927 81.1277 88.8983C80.2318 89.6105 80.2062 90.8075 80.8742 91.6585Z" fill="white"/>
<path d="M73.8456 99.8652L71.9745 100.562L66.3818 94.574L68.463 93.7987L69.4363 94.8675L72.1379 93.8612L72.1751 92.4162L74.2163 91.6559L73.8456 99.8652ZM70.5558 96.1792L72.0733 97.8921L72.1268 95.594L70.5558 96.1792Z" fill="white"/>
<path d="M63.1358 98.4361L63.3207 102.652L61.221 102.745L61.0379 98.5722C60.9904 97.4889 60.4242 96.9983 59.5928 97.0352C58.7614 97.0722 58.2394 97.5898 58.2855 98.6409L58.4709 102.867L56.3712 102.96L56.1886 98.7985C56.0822 96.3745 57.4106 95.2513 59.5317 95.1572C61.6529 95.0629 63.0328 96.087 63.1358 98.4361Z" fill="white"/>
<path d="M48.5457 99.8144L50.709 100.402L50.2362 102.164L43.9109 100.446L44.3837 98.6838L46.547 99.2715L48.0208 93.7769L50.0193 94.3198L48.5457 99.8144Z" fill="white"/>
<path d="M38.3206 98.2831L36.5451 97.2123L37.9821 94.7992L35.7034 93.4247L34.2664 95.8378L32.491 94.767L36.3308 88.3199L38.1062 89.3909L36.6471 91.8408L38.926 93.2153L40.385 90.7655L42.1604 91.8365L38.3206 98.2831Z" fill="white"/>
</svg>
