<svg width="47" height="50" viewBox="0 0 47 50" fill="none" xmlns="http://www.w3.org/2000/svg">
<g clip-path="url(#clip0_206_219)">
<path d="M45.0577 19.983H29.4382C29.0617 19.9829 28.7007 19.8325 28.4345 19.5649C28.1682 19.2974 28.0186 18.9345 28.0184 18.5561V2.19446C28.0184 0.982841 27.0409 0 25.836 0H20.2602C19.0545 0 18.0776 0.982841 18.0776 2.19446V18.457C18.0776 19.3007 17.399 19.9865 16.5595 19.9902L11.4408 20.0148C10.5942 20.0194 9.90642 19.329 9.90807 18.4788L9.93982 2.19815C9.94258 0.984686 8.96473 0 7.75743 0H2.18624C0.980409 0 0.00366211 0.982841 0.00366211 2.19446V48.0092C0.00366211 49.0856 0.871188 49.9576 1.94119 49.9576H45.0577C46.1286 49.9576 46.9962 49.0856 46.9962 48.0092V21.9314C46.9962 20.855 46.1286 19.983 45.0577 19.983ZM37.7331 37.1847C37.7331 38.5952 36.5954 39.7389 35.1921 39.7389H30.7856C29.3821 39.7389 28.2443 38.5952 28.2443 37.1847V32.7557C28.2443 31.345 29.3821 30.2015 30.7856 30.2015H35.1921C36.5954 30.2015 37.7331 31.345 37.7331 32.7557V37.1847Z" fill="#FF6600"/>
</g>
<defs>
<clipPath id="clip0_206_219">
<rect width="47" height="50" fill="white"/>
</clipPath>
</defs>
</svg>
