<svg width="111" height="111" viewBox="0 0 111 111" fill="none" xmlns="http://www.w3.org/2000/svg">
<g clip-path="url(#clip0_214_601)">
<path d="M48.9111 110.929C38.5209 110.18 28.2515 107.565 21.9534 104.064C18.366 102.069 15.6329 99.6186 14.5605 97.4343L13.9224 96.1346V55.369V14.6033L14.4273 13.5781C16.6837 8.99694 23.885 4.86702 33.9376 2.38902C37.3499 1.5478 42.2762 0.710077 46.2951 0.287643C50.3989 -0.14383 61.2763 -0.0781844 65.3699 0.403397C76.2499 1.68164 85.508 4.54331 91.2135 8.39168C93.4137 9.87575 95.6715 12.2504 96.4363 13.885L97.0921 15.2864L97.036 55.9288L96.9799 96.5713L96.4535 97.6408C96.1639 98.2289 95.2895 99.3861 94.5101 100.212C89.766 105.241 79.5898 108.961 66.242 110.547C63.5215 110.87 51.7022 111.13 48.9111 110.929ZM68.0586 75.9984C68.0186 75.8943 66.4654 74.5106 64.607 72.9234C62.7485 71.3362 61.1479 69.9631 61.05 69.8719C60.9522 69.7807 61.2956 69.458 61.8131 69.1546C62.3306 68.8513 63.322 68.0073 64.0164 67.2792C66.0469 65.1501 67.0049 62.52 67.0049 59.0749C67.0049 55.6834 65.9717 52.947 63.9022 50.8581C61.8164 48.7526 59.4216 47.8479 55.9341 47.8479C50.5584 47.8479 46.4299 50.9847 45.1122 56.0701C44.6589 57.8193 44.6613 61.3538 45.1169 62.9048C46.3053 66.9505 49.5418 69.8888 53.5698 70.5788C54.9328 70.8123 55.1175 70.9129 56.0468 71.9289C56.5991 72.5328 57.7324 73.738 58.5653 74.6073L60.0797 76.1877H64.1055C66.3197 76.1877 68.0985 76.1026 68.0586 75.9984ZM54.2525 64.7264C53.2833 64.2211 52.9169 63.8289 52.3642 62.7054C51.9374 61.8376 51.8644 61.344 51.8596 59.293C51.8548 57.2089 51.9211 56.7585 52.3668 55.8536C53.096 54.3727 54.1009 53.6716 55.6554 53.5592C57.8191 53.4022 59.0681 54.4642 59.7227 57.0162C60.5253 60.1452 59.6427 63.4717 57.7172 64.5758C56.707 65.155 55.2001 65.2205 54.2525 64.7264ZM36.4083 70.5344C40.6291 69.7339 43.0251 67.2793 43.0251 63.7556C43.0251 60.6296 41.4782 58.8081 37.203 56.8995C34.7556 55.8069 33.8691 55.1212 33.8691 54.3199C33.8691 53.6558 34.7104 52.9281 35.6897 52.7452C36.646 52.5667 39.1821 53.0072 40.6797 53.6121L41.9351 54.1193V51.3405V48.5615L40.5726 48.2593C39.7305 48.0725 37.9611 47.9604 35.9401 47.9661C33.0775 47.9661 32.5169 48.0359 31.4396 48.4637C28.2929 49.7129 26.7996 51.8409 26.8235 55.042C26.8459 58.0387 28.4268 59.908 32.3612 61.5896C34.6827 62.5818 35.6132 63.3373 35.6132 64.2301C35.6132 66.1274 32.4519 66.361 29.1048 64.7109C28.1882 64.259 27.3647 63.8524 27.2747 63.8074C27.1848 63.7624 27.1113 65.0604 27.1113 66.692C27.1113 69.6453 27.1144 69.6595 27.6491 69.8631C29.6626 70.6286 34.1129 70.9697 36.4083 70.5344ZM84.6628 67.7948V65.2879H80.8479H77.0328V56.6769V48.066H73.6539H70.2749V59.1839V70.3018H77.4688H84.6628V67.7948ZM61.1189 23.8626C67.8336 23.3968 72.8669 22.5176 77.2961 21.0367C81.7085 19.5613 84.3151 17.7761 84.8982 15.8301C85.1228 15.0803 85.1067 14.7958 84.7928 13.9736C83.3851 10.2876 75.5212 7.45565 63.5047 6.30743C58.3645 5.81618 49.0164 5.97543 44.1154 6.63747C36.6371 7.64789 30.5681 9.5247 27.8696 11.6614C22.4107 15.9841 28.1835 20.7385 41.6082 22.9762C47.4291 23.9465 54.9705 24.2891 61.1189 23.8626Z" fill="#00BCF2"/>
</g>
<defs>
<clipPath id="clip0_214_601">
<rect width="111" height="111" fill="white"/>
</clipPath>
</defs>
</svg>
