<svg width="100" height="103" viewBox="0 0 100 103" fill="none" xmlns="http://www.w3.org/2000/svg">
<g clip-path="url(#clip0_210_408)">
<path d="M65.1844 51.3875L83.118 20.3465L91.7836 51.3875L83.1176 82.4211L65.1844 51.3875ZM56.4438 56.4285L74.3797 87.4644L43.143 79.4429L20.5766 56.4285H56.4438ZM74.3758 15.3017L56.4438 46.3427H20.5766L43.143 23.3267L74.3758 15.3017ZM99.977 40.8236L89.0363 0.0237427L48.2004 10.9581L42.1555 21.6113L29.8895 21.5232L0 51.3903L29.8895 81.2503H29.8906L42.1516 81.1595L48.2051 91.8127L89.0363 102.745L99.9766 61.953L93.7633 51.3879L99.9766 40.8244L99.977 40.8236Z" fill="white"/>
</g>
<defs>
<clipPath id="clip0_210_408">
<rect width="100" height="103" fill="white"/>
</clipPath>
</defs>
</svg>
