<svg width="681" height="1066" viewBox="0 0 681 1066" fill="none" xmlns="http://www.w3.org/2000/svg">
<path d="M-42.6015 20.9076L-58.9773 59.6977C-75.663 98.4048 -108.415 175.985 -129.914 246.283C-151.301 316.778 -160.929 379.96 -84.4702 393.964C-7.92835 407.658 155.01 372.256 226.081 389.633C297.349 406.896 276.779 477.443 278.659 534.242C280.654 591.238 304.819 634.909 286.184 703.816C267.435 772.526 205.604 866.895 252.902 897.997C300.199 929.099 456.458 897.554 544.199 904.782C631.857 912.32 650.914 958.941 657.82 1013.1C664.416 1067.18 659.171 1128.88 656.239 1159.64L653.617 1190.49" stroke="#6600FF" stroke-opacity="0.4" stroke-width="40" stroke-linecap="round"/>
</svg>
