<svg width="658" height="1033" viewBox="0 0 658 1033" fill="none" xmlns="http://www.w3.org/2000/svg">
<path d="M113.124 -133.064L98.0356 -93.755C82.6347 -54.519 52.4577 24.0986 33.2865 95.0673C14.2351 166.229 6.69454 229.694 83.5733 241.17C160.525 252.334 322.208 211.581 393.813 226.606C465.611 241.51 447.377 312.697 451.129 369.404C455.001 426.303 480.593 469.154 464.238 538.638C447.764 607.928 389.077 704.284 437.374 733.81C485.671 763.336 640.805 726.659 728.736 730.991C816.595 735.636 837.179 781.603 845.866 835.506C854.241 889.336 851.032 951.175 849.116 982.021L847.511 1012.94" stroke="#6600FF" stroke-opacity="0.4" stroke-width="40" stroke-linecap="round"/>
</svg>
