<svg width="434" height="659" viewBox="0 0 434 659" fill="none" xmlns="http://www.w3.org/2000/svg">
<path d="M237.954 54.7136C306.96 65.6411 407.822 50.3661 421.576 82.5611C435.33 114.756 361.858 194.539 357.391 271.619C353.041 348.816 417.697 423.429 396.302 442.464C375.024 461.616 267.814 425.191 203.158 421.666C138.503 418.259 116.52 447.869 61.3861 505.091C6.25251 562.314 -81.9142 647.266 -142.338 648.206C-202.761 649.146 -235.324 566.309 -278.114 489.934C-320.787 413.676 -373.569 343.881 -384.972 267.624C-396.258 191.366 -366.281 108.529 -295.63 80.5636C-224.979 52.5986 -113.772 79.3886 -42.0628 70.1061C29.7636 60.8236 62.0914 15.3511 96.8879 11.1211C131.684 6.89112 168.832 43.9036 237.954 54.7136Z" stroke="#6600FF" stroke-opacity="0.4" stroke-width="20"/>
</svg>
