<?xml version="1.0" standalone="no"?>
<!DOCTYPE svg PUBLIC "-//W3C//DTD SVG 20010904//EN"
 "http://www.w3.org/TR/2001/REC-SVG-20010904/DTD/svg10.dtd">
<svg version="1.0" xmlns="http://www.w3.org/2000/svg"
 width="301.000000pt" height="301.000000pt" viewBox="0 0 301.000000 301.000000"
 preserveAspectRatio="xMidYMid meet">
<metadata>
Created by potrace 1.14, written by Peter Selinger 2001-2017
</metadata>
<g transform="translate(0.000000,301.000000) scale(0.100000,-0.100000)"
fill="#000000" stroke="none">
<path d="M1340 3000 c-362 -45 -643 -182 -896 -434 -224 -225 -354 -468 -416
-779 -29 -145 -30 -382 -4 -532 54 -309 193 -573 420 -801 225 -224 468 -354
779 -416 145 -29 382 -30 532 -4 309 54 573 193 801 420 224 225 354 468 416
779 29 145 30 382 4 532 -54 309 -193 573 -420 801 -224 223 -471 355 -773
414 -124 24 -333 33 -443 20z m-106 -1002 c8 -13 69 -120 134 -238 66 -118
124 -215 128 -215 4 0 65 103 135 229 71 126 134 233 141 237 21 14 192 11
206 -3 14 -14 17 -954 4 -976 -6 -9 -37 -12 -118 -10 l-109 3 -5 285 -5 285
-90 -165 -90 -165 -68 -3 c-65 -3 -68 -2 -83 25 -9 15 -50 91 -92 168 l-77
140 -5 -285 -5 -285 -109 -3 c-81 -2 -112 1 -118 10 -12 20 -10 945 2 969 10
17 22 19 110 19 92 0 101 -2 114 -22z"/>
</g>
</svg>
